<mxfile host="Electron" modified="2024-02-05T04:38:12.351Z" agent="Mozilla/5.0 (Windows NT 10.0; Win64; x64) AppleWebKit/537.36 (KHTML, like Gecko) draw.io/21.6.8 Chrome/114.0.5735.289 Electron/25.5.0 Safari/537.36" etag="f4Yy1WWq4hh-EYOzr9l6" version="21.6.8" type="device">
  <diagram name="Página-1" id="JAA7s1D4nNlq8aPr5iq-">
    <mxGraphModel dx="4280" dy="5527" grid="1" gridSize="10" guides="1" tooltips="1" connect="1" arrows="1" fold="1" page="1" pageScale="1" pageWidth="827" pageHeight="1169" math="0" shadow="0">
      <root>
        <mxCell id="0" />
        <mxCell id="1" parent="0" />
        <mxCell id="spG03iiC7VgnNip-iij5-86" value="UI" style="shape=folder;fontStyle=1;tabWidth=110;tabHeight=30;tabPosition=left;html=1;boundedLbl=1;labelInHeader=1;container=1;collapsible=0;whiteSpace=wrap;strokeWidth=3;" vertex="1" parent="1">
          <mxGeometry x="-210" y="-1070" width="2130" height="1190" as="geometry" />
        </mxCell>
        <mxCell id="spG03iiC7VgnNip-iij5-87" value="" style="html=1;strokeColor=none;resizeWidth=1;resizeHeight=1;fillColor=none;part=1;connectable=0;allowArrows=0;deletable=0;whiteSpace=wrap;" vertex="1" parent="spG03iiC7VgnNip-iij5-86">
          <mxGeometry width="710" height="356.99999999999994" relative="1" as="geometry">
            <mxPoint x="170" y="-1270" as="offset" />
          </mxGeometry>
        </mxCell>
        <mxCell id="spG03iiC7VgnNip-iij5-84" value="LÓGICA" style="shape=folder;fontStyle=1;tabWidth=110;tabHeight=30;tabPosition=left;html=1;boundedLbl=1;labelInHeader=1;container=1;collapsible=0;whiteSpace=wrap;strokeWidth=3;" vertex="1" parent="1">
          <mxGeometry y="260" width="1910" height="470" as="geometry" />
        </mxCell>
        <mxCell id="spG03iiC7VgnNip-iij5-85" value="" style="html=1;strokeColor=none;resizeWidth=1;resizeHeight=1;fillColor=none;part=1;connectable=0;allowArrows=0;deletable=0;whiteSpace=wrap;" vertex="1" parent="spG03iiC7VgnNip-iij5-84">
          <mxGeometry width="47.27722772277228" height="11.058823529411764" relative="1" as="geometry">
            <mxPoint x="200" y="1290" as="offset" />
          </mxGeometry>
        </mxCell>
        <mxCell id="kFq2H20rjHX_EUCBnDA8-81" value="PERSISTENCIA" style="shape=folder;fontStyle=1;tabWidth=110;tabHeight=30;tabPosition=left;html=1;boundedLbl=1;labelInHeader=1;container=1;collapsible=0;whiteSpace=wrap;strokeWidth=3;" parent="1" vertex="1">
          <mxGeometry y="760" width="1910" height="620" as="geometry" />
        </mxCell>
        <mxCell id="kFq2H20rjHX_EUCBnDA8-82" value="&amp;nbsp;&lt;br&gt;" style="html=1;strokeColor=none;resizeWidth=1;resizeHeight=1;fillColor=none;part=1;connectable=0;allowArrows=0;deletable=0;whiteSpace=wrap;" parent="kFq2H20rjHX_EUCBnDA8-81" vertex="1">
          <mxGeometry width="127.33333333333334" height="124.00000000000001" relative="1" as="geometry">
            <mxPoint x="20" y="390" as="offset" />
          </mxGeometry>
        </mxCell>
        <mxCell id="kFq2H20rjHX_EUCBnDA8-79" value="EC" style="shape=folder;fontStyle=1;tabWidth=110;tabHeight=30;tabPosition=left;html=1;boundedLbl=1;labelInHeader=1;container=1;collapsible=0;whiteSpace=wrap;strokeWidth=3;" parent="1" vertex="1">
          <mxGeometry x="2040" y="120" width="422" height="1260" as="geometry" />
        </mxCell>
        <mxCell id="kFq2H20rjHX_EUCBnDA8-80" value="" style="html=1;strokeColor=none;resizeWidth=1;resizeHeight=1;fillColor=none;part=1;connectable=0;allowArrows=0;deletable=0;whiteSpace=wrap;" parent="kFq2H20rjHX_EUCBnDA8-79" vertex="1">
          <mxGeometry width="90" height="40" relative="1" as="geometry">
            <mxPoint x="-20" y="-570" as="offset" />
          </mxGeometry>
        </mxCell>
        <mxCell id="rRB_AB-X7g9ggpwCLPEc-1" value="PersistenciaAeropuerto" style="swimlane;fontStyle=1;align=center;verticalAlign=top;childLayout=stackLayout;horizontal=1;startSize=26;horizontalStack=0;resizeParent=1;resizeParentMax=0;resizeLast=0;collapsible=1;marginBottom=0;whiteSpace=wrap;html=1;rounded=1;" parent="1" vertex="1">
          <mxGeometry x="40" y="910" width="310" height="216" as="geometry" />
        </mxCell>
        <mxCell id="rRB_AB-X7g9ggpwCLPEc-2" value="&lt;font color=&quot;#ffffff&quot;&gt;-&lt;/font&gt;" style="text;strokeColor=none;fillColor=none;align=left;verticalAlign=top;spacingLeft=4;spacingRight=4;overflow=hidden;rotatable=0;points=[[0,0.5],[1,0.5]];portConstraint=eastwest;whiteSpace=wrap;html=1;" parent="rRB_AB-X7g9ggpwCLPEc-1" vertex="1">
          <mxGeometry y="26" width="310" height="26" as="geometry" />
        </mxCell>
        <mxCell id="rRB_AB-X7g9ggpwCLPEc-3" value="" style="line;strokeWidth=1;fillColor=none;align=left;verticalAlign=middle;spacingTop=-1;spacingLeft=3;spacingRight=3;rotatable=0;labelPosition=right;points=[];portConstraint=eastwest;strokeColor=inherit;" parent="rRB_AB-X7g9ggpwCLPEc-1" vertex="1">
          <mxGeometry y="52" width="310" height="8" as="geometry" />
        </mxCell>
        <mxCell id="rRB_AB-X7g9ggpwCLPEc-4" value="&lt;u&gt;+ Agregar (&lt;/u&gt;&lt;u style=&quot;border-color: var(--border-color);&quot;&gt;aAeropuerto :&amp;nbsp;&lt;/u&gt;&lt;u&gt;Aeropuerto)&lt;/u&gt;" style="text;strokeColor=none;fillColor=none;align=left;verticalAlign=top;spacingLeft=4;spacingRight=4;overflow=hidden;rotatable=0;points=[[0,0.5],[1,0.5]];portConstraint=eastwest;whiteSpace=wrap;html=1;" parent="rRB_AB-X7g9ggpwCLPEc-1" vertex="1">
          <mxGeometry y="60" width="310" height="26" as="geometry" />
        </mxCell>
        <mxCell id="rRB_AB-X7g9ggpwCLPEc-5" value="&lt;u&gt;+ Modificar (&lt;/u&gt;&lt;u style=&quot;border-color: var(--border-color);&quot;&gt;aAeropuerto :&amp;nbsp;&lt;/u&gt;&lt;u style=&quot;border-color: var(--border-color);&quot;&gt;Aeropuerto&lt;/u&gt;&lt;u&gt;)&lt;/u&gt;" style="text;strokeColor=none;fillColor=none;align=left;verticalAlign=top;spacingLeft=4;spacingRight=4;overflow=hidden;rotatable=0;points=[[0,0.5],[1,0.5]];portConstraint=eastwest;whiteSpace=wrap;html=1;" parent="rRB_AB-X7g9ggpwCLPEc-1" vertex="1">
          <mxGeometry y="86" width="310" height="26" as="geometry" />
        </mxCell>
        <mxCell id="rRB_AB-X7g9ggpwCLPEc-6" value="&lt;u&gt;+ Eliminar (&lt;/u&gt;&lt;u style=&quot;border-color: var(--border-color);&quot;&gt;aAeropuerto :&amp;nbsp;&lt;/u&gt;&lt;u style=&quot;border-color: var(--border-color);&quot;&gt;Aeropuerto&lt;/u&gt;&lt;u&gt;)&lt;/u&gt;" style="text;strokeColor=none;fillColor=none;align=left;verticalAlign=top;spacingLeft=4;spacingRight=4;overflow=hidden;rotatable=0;points=[[0,0.5],[1,0.5]];portConstraint=eastwest;whiteSpace=wrap;html=1;" parent="rRB_AB-X7g9ggpwCLPEc-1" vertex="1">
          <mxGeometry y="112" width="310" height="26" as="geometry" />
        </mxCell>
        <mxCell id="rRB_AB-X7g9ggpwCLPEc-7" value="&lt;u&gt;+ BuscarAeropuerto (codigoAero: string) : Aeropuerto&lt;/u&gt;" style="text;strokeColor=none;fillColor=none;align=left;verticalAlign=top;spacingLeft=4;spacingRight=4;overflow=hidden;rotatable=0;points=[[0,0.5],[1,0.5]];portConstraint=eastwest;whiteSpace=wrap;html=1;" parent="rRB_AB-X7g9ggpwCLPEc-1" vertex="1">
          <mxGeometry y="138" width="310" height="26" as="geometry" />
        </mxCell>
        <mxCell id="rRB_AB-X7g9ggpwCLPEc-8" value="&lt;u&gt;+ ListarAeropuertosConVuelos(unVuelo : string) : Vuelo&lt;/u&gt;" style="text;strokeColor=none;fillColor=none;align=left;verticalAlign=top;spacingLeft=4;spacingRight=4;overflow=hidden;rotatable=0;points=[[0,0.5],[1,0.5]];portConstraint=eastwest;whiteSpace=wrap;html=1;" parent="rRB_AB-X7g9ggpwCLPEc-1" vertex="1">
          <mxGeometry y="164" width="310" height="26" as="geometry" />
        </mxCell>
        <mxCell id="rRB_AB-X7g9ggpwCLPEc-9" value="&lt;u&gt;+ ListarAeropuertos() : Lista de Aeropuertos&lt;/u&gt;" style="text;strokeColor=none;fillColor=none;align=left;verticalAlign=top;spacingLeft=4;spacingRight=4;overflow=hidden;rotatable=0;points=[[0,0.5],[1,0.5]];portConstraint=eastwest;whiteSpace=wrap;html=1;" parent="rRB_AB-X7g9ggpwCLPEc-1" vertex="1">
          <mxGeometry y="190" width="310" height="26" as="geometry" />
        </mxCell>
        <mxCell id="rRB_AB-X7g9ggpwCLPEc-10" value="PersistenciaCiudad" style="swimlane;fontStyle=1;align=center;verticalAlign=top;childLayout=stackLayout;horizontal=1;startSize=26;horizontalStack=0;resizeParent=1;resizeParentMax=0;resizeLast=0;collapsible=1;marginBottom=0;whiteSpace=wrap;html=1;rounded=1;" parent="1" vertex="1">
          <mxGeometry x="360" y="910" width="270" height="190" as="geometry" />
        </mxCell>
        <mxCell id="rRB_AB-X7g9ggpwCLPEc-11" value="&lt;font color=&quot;#ffffff&quot;&gt;-&lt;/font&gt;" style="text;strokeColor=none;fillColor=none;align=left;verticalAlign=top;spacingLeft=4;spacingRight=4;overflow=hidden;rotatable=0;points=[[0,0.5],[1,0.5]];portConstraint=eastwest;whiteSpace=wrap;html=1;" parent="rRB_AB-X7g9ggpwCLPEc-10" vertex="1">
          <mxGeometry y="26" width="270" height="26" as="geometry" />
        </mxCell>
        <mxCell id="rRB_AB-X7g9ggpwCLPEc-12" value="" style="line;strokeWidth=1;fillColor=none;align=left;verticalAlign=middle;spacingTop=-1;spacingLeft=3;spacingRight=3;rotatable=0;labelPosition=right;points=[];portConstraint=eastwest;strokeColor=inherit;" parent="rRB_AB-X7g9ggpwCLPEc-10" vertex="1">
          <mxGeometry y="52" width="270" height="8" as="geometry" />
        </mxCell>
        <mxCell id="rRB_AB-X7g9ggpwCLPEc-13" value="&lt;u&gt;+ Agregar (&lt;/u&gt;&lt;u&gt;cCiudad :&amp;nbsp;&lt;/u&gt;&lt;u style=&quot;border-color: var(--border-color);&quot;&gt;Ciudad&lt;/u&gt;&lt;u&gt;)&lt;/u&gt;" style="text;strokeColor=none;fillColor=none;align=left;verticalAlign=top;spacingLeft=4;spacingRight=4;overflow=hidden;rotatable=0;points=[[0,0.5],[1,0.5]];portConstraint=eastwest;whiteSpace=wrap;html=1;" parent="rRB_AB-X7g9ggpwCLPEc-10" vertex="1">
          <mxGeometry y="60" width="270" height="26" as="geometry" />
        </mxCell>
        <mxCell id="rRB_AB-X7g9ggpwCLPEc-14" value="&lt;u&gt;+ Modificar (&lt;/u&gt;&lt;u style=&quot;border-color: var(--border-color);&quot;&gt;cCiudad :&amp;nbsp;&lt;/u&gt;&lt;u style=&quot;border-color: var(--border-color);&quot;&gt;Ciudad&lt;/u&gt;&lt;u&gt;)&lt;/u&gt;" style="text;strokeColor=none;fillColor=none;align=left;verticalAlign=top;spacingLeft=4;spacingRight=4;overflow=hidden;rotatable=0;points=[[0,0.5],[1,0.5]];portConstraint=eastwest;whiteSpace=wrap;html=1;" parent="rRB_AB-X7g9ggpwCLPEc-10" vertex="1">
          <mxGeometry y="86" width="270" height="26" as="geometry" />
        </mxCell>
        <mxCell id="rRB_AB-X7g9ggpwCLPEc-15" value="&lt;u&gt;+ Eliminar (&lt;/u&gt;&lt;u style=&quot;border-color: var(--border-color);&quot;&gt;cCiudad :&amp;nbsp;&lt;/u&gt;&lt;u style=&quot;border-color: var(--border-color);&quot;&gt;Ciudad&lt;/u&gt;&lt;u&gt;)&lt;/u&gt;" style="text;strokeColor=none;fillColor=none;align=left;verticalAlign=top;spacingLeft=4;spacingRight=4;overflow=hidden;rotatable=0;points=[[0,0.5],[1,0.5]];portConstraint=eastwest;whiteSpace=wrap;html=1;" parent="rRB_AB-X7g9ggpwCLPEc-10" vertex="1">
          <mxGeometry y="112" width="270" height="26" as="geometry" />
        </mxCell>
        <mxCell id="rRB_AB-X7g9ggpwCLPEc-16" value="&lt;u&gt;+ BuscarCiudad&amp;nbsp;(codigoCiudad : string) : Ciudad&lt;/u&gt;" style="text;strokeColor=none;fillColor=none;align=left;verticalAlign=top;spacingLeft=4;spacingRight=4;overflow=hidden;rotatable=0;points=[[0,0.5],[1,0.5]];portConstraint=eastwest;whiteSpace=wrap;html=1;" parent="rRB_AB-X7g9ggpwCLPEc-10" vertex="1">
          <mxGeometry y="138" width="270" height="26" as="geometry" />
        </mxCell>
        <mxCell id="rRB_AB-X7g9ggpwCLPEc-18" value="&lt;u&gt;+ ListarCiudades() : Lista de Ciudades&lt;/u&gt;" style="text;strokeColor=none;fillColor=none;align=left;verticalAlign=top;spacingLeft=4;spacingRight=4;overflow=hidden;rotatable=0;points=[[0,0.5],[1,0.5]];portConstraint=eastwest;whiteSpace=wrap;html=1;" parent="rRB_AB-X7g9ggpwCLPEc-10" vertex="1">
          <mxGeometry y="164" width="270" height="26" as="geometry" />
        </mxCell>
        <mxCell id="rRB_AB-X7g9ggpwCLPEc-19" value="PersistenciaCliente" style="swimlane;fontStyle=1;align=center;verticalAlign=top;childLayout=stackLayout;horizontal=1;startSize=26;horizontalStack=0;resizeParent=1;resizeParentMax=0;resizeLast=0;collapsible=1;marginBottom=0;whiteSpace=wrap;html=1;rounded=1;" parent="1" vertex="1">
          <mxGeometry x="960" y="910" width="270" height="216" as="geometry" />
        </mxCell>
        <mxCell id="rRB_AB-X7g9ggpwCLPEc-20" value="&lt;font color=&quot;#ffffff&quot;&gt;-&lt;/font&gt;" style="text;strokeColor=none;fillColor=none;align=left;verticalAlign=top;spacingLeft=4;spacingRight=4;overflow=hidden;rotatable=0;points=[[0,0.5],[1,0.5]];portConstraint=eastwest;whiteSpace=wrap;html=1;" parent="rRB_AB-X7g9ggpwCLPEc-19" vertex="1">
          <mxGeometry y="26" width="270" height="26" as="geometry" />
        </mxCell>
        <mxCell id="rRB_AB-X7g9ggpwCLPEc-21" value="" style="line;strokeWidth=1;fillColor=none;align=left;verticalAlign=middle;spacingTop=-1;spacingLeft=3;spacingRight=3;rotatable=0;labelPosition=right;points=[];portConstraint=eastwest;strokeColor=inherit;" parent="rRB_AB-X7g9ggpwCLPEc-19" vertex="1">
          <mxGeometry y="52" width="270" height="8" as="geometry" />
        </mxCell>
        <mxCell id="rRB_AB-X7g9ggpwCLPEc-27" value="&lt;u&gt;+ Logueo ( pUsu&amp;nbsp;&lt;/u&gt;&lt;u&gt;:&amp;nbsp;&lt;/u&gt;&lt;u style=&quot;border-color: var(--border-color);&quot;&gt;string, pPass : string&lt;/u&gt;&lt;u&gt;) : Cliente&lt;/u&gt;" style="text;strokeColor=none;fillColor=none;align=left;verticalAlign=top;spacingLeft=4;spacingRight=4;overflow=hidden;rotatable=0;points=[[0,0.5],[1,0.5]];portConstraint=eastwest;whiteSpace=wrap;html=1;" parent="rRB_AB-X7g9ggpwCLPEc-19" vertex="1">
          <mxGeometry y="60" width="270" height="26" as="geometry" />
        </mxCell>
        <mxCell id="rRB_AB-X7g9ggpwCLPEc-22" value="&lt;u&gt;+ Agregar (&lt;/u&gt;&lt;u&gt;Cliente cCliente)&lt;/u&gt;" style="text;strokeColor=none;fillColor=none;align=left;verticalAlign=top;spacingLeft=4;spacingRight=4;overflow=hidden;rotatable=0;points=[[0,0.5],[1,0.5]];portConstraint=eastwest;whiteSpace=wrap;html=1;" parent="rRB_AB-X7g9ggpwCLPEc-19" vertex="1">
          <mxGeometry y="86" width="270" height="26" as="geometry" />
        </mxCell>
        <mxCell id="rRB_AB-X7g9ggpwCLPEc-23" value="&lt;u&gt;+ Modificar (&lt;/u&gt;&lt;u&gt;Cliente cCliente)&lt;/u&gt;" style="text;strokeColor=none;fillColor=none;align=left;verticalAlign=top;spacingLeft=4;spacingRight=4;overflow=hidden;rotatable=0;points=[[0,0.5],[1,0.5]];portConstraint=eastwest;whiteSpace=wrap;html=1;" parent="rRB_AB-X7g9ggpwCLPEc-19" vertex="1">
          <mxGeometry y="112" width="270" height="26" as="geometry" />
        </mxCell>
        <mxCell id="rRB_AB-X7g9ggpwCLPEc-24" value="&lt;u&gt;+ Eliminar (&lt;/u&gt;&lt;u&gt;Cliente cCliente)&lt;/u&gt;" style="text;strokeColor=none;fillColor=none;align=left;verticalAlign=top;spacingLeft=4;spacingRight=4;overflow=hidden;rotatable=0;points=[[0,0.5],[1,0.5]];portConstraint=eastwest;whiteSpace=wrap;html=1;" parent="rRB_AB-X7g9ggpwCLPEc-19" vertex="1">
          <mxGeometry y="138" width="270" height="26" as="geometry" />
        </mxCell>
        <mxCell id="rRB_AB-X7g9ggpwCLPEc-25" value="&lt;u&gt;+ Buscar (pasaporteCliente: string) : Cliente&lt;/u&gt;" style="text;strokeColor=none;fillColor=none;align=left;verticalAlign=top;spacingLeft=4;spacingRight=4;overflow=hidden;rotatable=0;points=[[0,0.5],[1,0.5]];portConstraint=eastwest;whiteSpace=wrap;html=1;" parent="rRB_AB-X7g9ggpwCLPEc-19" vertex="1">
          <mxGeometry y="164" width="270" height="26" as="geometry" />
        </mxCell>
        <mxCell id="rRB_AB-X7g9ggpwCLPEc-26" value="&lt;u&gt;+ ListarClientes() : Lista de Clientes&lt;/u&gt;" style="text;strokeColor=none;fillColor=none;align=left;verticalAlign=top;spacingLeft=4;spacingRight=4;overflow=hidden;rotatable=0;points=[[0,0.5],[1,0.5]];portConstraint=eastwest;whiteSpace=wrap;html=1;" parent="rRB_AB-X7g9ggpwCLPEc-19" vertex="1">
          <mxGeometry y="190" width="270" height="26" as="geometry" />
        </mxCell>
        <mxCell id="rRB_AB-X7g9ggpwCLPEc-30" value="PersistenciaEmpleado" style="swimlane;fontStyle=1;align=center;verticalAlign=top;childLayout=stackLayout;horizontal=1;startSize=26;horizontalStack=0;resizeParent=1;resizeParentMax=0;resizeLast=0;collapsible=1;marginBottom=0;whiteSpace=wrap;html=1;rounded=1;" parent="1" vertex="1">
          <mxGeometry x="1580" y="910" width="290" height="86" as="geometry" />
        </mxCell>
        <mxCell id="rRB_AB-X7g9ggpwCLPEc-31" value="&lt;font color=&quot;#ffffff&quot;&gt;-&lt;/font&gt;" style="text;strokeColor=none;fillColor=none;align=left;verticalAlign=top;spacingLeft=4;spacingRight=4;overflow=hidden;rotatable=0;points=[[0,0.5],[1,0.5]];portConstraint=eastwest;whiteSpace=wrap;html=1;" parent="rRB_AB-X7g9ggpwCLPEc-30" vertex="1">
          <mxGeometry y="26" width="290" height="26" as="geometry" />
        </mxCell>
        <mxCell id="rRB_AB-X7g9ggpwCLPEc-32" value="" style="line;strokeWidth=1;fillColor=none;align=left;verticalAlign=middle;spacingTop=-1;spacingLeft=3;spacingRight=3;rotatable=0;labelPosition=right;points=[];portConstraint=eastwest;strokeColor=inherit;" parent="rRB_AB-X7g9ggpwCLPEc-30" vertex="1">
          <mxGeometry y="52" width="290" height="8" as="geometry" />
        </mxCell>
        <mxCell id="rRB_AB-X7g9ggpwCLPEc-33" value="&lt;u&gt;+ Logueo ( pUsu&amp;nbsp;&lt;/u&gt;&lt;u&gt;:&amp;nbsp;&lt;/u&gt;&lt;u style=&quot;border-color: var(--border-color);&quot;&gt;string, pPass : string&lt;/u&gt;&lt;u&gt;) : Empleado&lt;/u&gt;" style="text;strokeColor=none;fillColor=none;align=left;verticalAlign=top;spacingLeft=4;spacingRight=4;overflow=hidden;rotatable=0;points=[[0,0.5],[1,0.5]];portConstraint=eastwest;whiteSpace=wrap;html=1;" parent="rRB_AB-X7g9ggpwCLPEc-30" vertex="1">
          <mxGeometry y="60" width="290" height="26" as="geometry" />
        </mxCell>
        <mxCell id="rRB_AB-X7g9ggpwCLPEc-39" value="PersistenciaPasaje" style="swimlane;fontStyle=1;align=center;verticalAlign=top;childLayout=stackLayout;horizontal=1;startSize=26;horizontalStack=0;resizeParent=1;resizeParentMax=0;resizeLast=0;collapsible=1;marginBottom=0;whiteSpace=wrap;html=1;rounded=1;" parent="1" vertex="1">
          <mxGeometry x="1241" y="910" width="330" height="138" as="geometry" />
        </mxCell>
        <mxCell id="rRB_AB-X7g9ggpwCLPEc-40" value="&lt;font color=&quot;#ffffff&quot;&gt;-&lt;/font&gt;" style="text;strokeColor=none;fillColor=none;align=left;verticalAlign=top;spacingLeft=4;spacingRight=4;overflow=hidden;rotatable=0;points=[[0,0.5],[1,0.5]];portConstraint=eastwest;whiteSpace=wrap;html=1;" parent="rRB_AB-X7g9ggpwCLPEc-39" vertex="1">
          <mxGeometry y="26" width="330" height="26" as="geometry" />
        </mxCell>
        <mxCell id="rRB_AB-X7g9ggpwCLPEc-41" value="" style="line;strokeWidth=1;fillColor=none;align=left;verticalAlign=middle;spacingTop=-1;spacingLeft=3;spacingRight=3;rotatable=0;labelPosition=right;points=[];portConstraint=eastwest;strokeColor=inherit;" parent="rRB_AB-X7g9ggpwCLPEc-39" vertex="1">
          <mxGeometry y="52" width="330" height="8" as="geometry" />
        </mxCell>
        <mxCell id="rRB_AB-X7g9ggpwCLPEc-42" value="&lt;u&gt;+ Agregar (pPasaje :&amp;nbsp;&lt;/u&gt;&lt;u style=&quot;border-color: var(--border-color);&quot;&gt;Pasaje&lt;/u&gt;&lt;u&gt;)&lt;/u&gt;" style="text;strokeColor=none;fillColor=none;align=left;verticalAlign=top;spacingLeft=4;spacingRight=4;overflow=hidden;rotatable=0;points=[[0,0.5],[1,0.5]];portConstraint=eastwest;whiteSpace=wrap;html=1;" parent="rRB_AB-X7g9ggpwCLPEc-39" vertex="1">
          <mxGeometry y="60" width="330" height="26" as="geometry" />
        </mxCell>
        <mxCell id="rRB_AB-X7g9ggpwCLPEc-46" value="&lt;u&gt;+ ListarPasajesPorUsuario(numPasaporte : string) : Pasaje&lt;/u&gt;" style="text;strokeColor=none;fillColor=none;align=left;verticalAlign=top;spacingLeft=4;spacingRight=4;overflow=hidden;rotatable=0;points=[[0,0.5],[1,0.5]];portConstraint=eastwest;whiteSpace=wrap;html=1;" parent="rRB_AB-X7g9ggpwCLPEc-39" vertex="1">
          <mxGeometry y="86" width="330" height="26" as="geometry" />
        </mxCell>
        <mxCell id="rRB_AB-X7g9ggpwCLPEc-47" value="&lt;u&gt;+ ListarPasajes() : Lista de Pasajes&lt;/u&gt;" style="text;strokeColor=none;fillColor=none;align=left;verticalAlign=top;spacingLeft=4;spacingRight=4;overflow=hidden;rotatable=0;points=[[0,0.5],[1,0.5]];portConstraint=eastwest;whiteSpace=wrap;html=1;" parent="rRB_AB-X7g9ggpwCLPEc-39" vertex="1">
          <mxGeometry y="112" width="330" height="26" as="geometry" />
        </mxCell>
        <mxCell id="rRB_AB-X7g9ggpwCLPEc-58" value="PersistenciaVuelo" style="swimlane;fontStyle=1;align=center;verticalAlign=top;childLayout=stackLayout;horizontal=1;startSize=26;horizontalStack=0;resizeParent=1;resizeParentMax=0;resizeLast=0;collapsible=1;marginBottom=0;whiteSpace=wrap;html=1;rounded=1;" parent="1" vertex="1">
          <mxGeometry x="640" y="910" width="310" height="190" as="geometry" />
        </mxCell>
        <mxCell id="rRB_AB-X7g9ggpwCLPEc-59" value="&lt;font color=&quot;#ffffff&quot;&gt;-&lt;/font&gt;" style="text;strokeColor=none;fillColor=none;align=left;verticalAlign=top;spacingLeft=4;spacingRight=4;overflow=hidden;rotatable=0;points=[[0,0.5],[1,0.5]];portConstraint=eastwest;whiteSpace=wrap;html=1;" parent="rRB_AB-X7g9ggpwCLPEc-58" vertex="1">
          <mxGeometry y="26" width="310" height="26" as="geometry" />
        </mxCell>
        <mxCell id="rRB_AB-X7g9ggpwCLPEc-60" value="" style="line;strokeWidth=1;fillColor=none;align=left;verticalAlign=middle;spacingTop=-1;spacingLeft=3;spacingRight=3;rotatable=0;labelPosition=right;points=[];portConstraint=eastwest;strokeColor=inherit;" parent="rRB_AB-X7g9ggpwCLPEc-58" vertex="1">
          <mxGeometry y="52" width="310" height="8" as="geometry" />
        </mxCell>
        <mxCell id="rRB_AB-X7g9ggpwCLPEc-61" value="&lt;u&gt;+ Agregar (vVuelo :&amp;nbsp;&lt;/u&gt;&lt;u style=&quot;border-color: var(--border-color);&quot;&gt;Vuelo&lt;/u&gt;&lt;u&gt;)&lt;/u&gt;" style="text;strokeColor=none;fillColor=none;align=left;verticalAlign=top;spacingLeft=4;spacingRight=4;overflow=hidden;rotatable=0;points=[[0,0.5],[1,0.5]];portConstraint=eastwest;whiteSpace=wrap;html=1;" parent="rRB_AB-X7g9ggpwCLPEc-58" vertex="1">
          <mxGeometry y="60" width="310" height="26" as="geometry" />
        </mxCell>
        <mxCell id="rRB_AB-X7g9ggpwCLPEc-64" value="&lt;u&gt;+ BuscarVuelo(codigoVuelo : string) : Vuelo&lt;/u&gt;" style="text;strokeColor=none;fillColor=none;align=left;verticalAlign=top;spacingLeft=4;spacingRight=4;overflow=hidden;rotatable=0;points=[[0,0.5],[1,0.5]];portConstraint=eastwest;whiteSpace=wrap;html=1;" parent="rRB_AB-X7g9ggpwCLPEc-58" vertex="1">
          <mxGeometry y="86" width="310" height="26" as="geometry" />
        </mxCell>
        <mxCell id="rRB_AB-X7g9ggpwCLPEc-65" value="&lt;u&gt;+ ObtenerPartidas(codigoAeropuerto: string) : Vuelo&lt;/u&gt;" style="text;strokeColor=none;fillColor=none;align=left;verticalAlign=top;spacingLeft=4;spacingRight=4;overflow=hidden;rotatable=0;points=[[0,0.5],[1,0.5]];portConstraint=eastwest;whiteSpace=wrap;html=1;" parent="rRB_AB-X7g9ggpwCLPEc-58" vertex="1">
          <mxGeometry y="112" width="310" height="26" as="geometry" />
        </mxCell>
        <mxCell id="rRB_AB-X7g9ggpwCLPEc-67" value="&lt;u&gt;+ ObtenerArribos(codigoAeropuerto: string) : Vuelo&lt;/u&gt;" style="text;strokeColor=none;fillColor=none;align=left;verticalAlign=top;spacingLeft=4;spacingRight=4;overflow=hidden;rotatable=0;points=[[0,0.5],[1,0.5]];portConstraint=eastwest;whiteSpace=wrap;html=1;" parent="rRB_AB-X7g9ggpwCLPEc-58" vertex="1">
          <mxGeometry y="138" width="310" height="26" as="geometry" />
        </mxCell>
        <mxCell id="rRB_AB-X7g9ggpwCLPEc-66" value="&lt;u&gt;+ ListarVuelos() : Lista de Vuelos&lt;/u&gt;" style="text;strokeColor=none;fillColor=none;align=left;verticalAlign=top;spacingLeft=4;spacingRight=4;overflow=hidden;rotatable=0;points=[[0,0.5],[1,0.5]];portConstraint=eastwest;whiteSpace=wrap;html=1;" parent="rRB_AB-X7g9ggpwCLPEc-58" vertex="1">
          <mxGeometry y="164" width="310" height="26" as="geometry" />
        </mxCell>
        <mxCell id="rRB_AB-X7g9ggpwCLPEc-68" value="Conexion" style="swimlane;fontStyle=1;align=center;verticalAlign=top;childLayout=stackLayout;horizontal=1;startSize=26;horizontalStack=0;resizeParent=1;resizeParentMax=0;resizeLast=0;collapsible=1;marginBottom=0;whiteSpace=wrap;html=1;rounded=1;" parent="1" vertex="1">
          <mxGeometry x="930" y="1260" width="150" height="86" as="geometry" />
        </mxCell>
        <mxCell id="rRB_AB-X7g9ggpwCLPEc-69" value="&lt;u&gt;- str : string&amp;nbsp;&lt;/u&gt;" style="text;strokeColor=none;fillColor=none;align=left;verticalAlign=top;spacingLeft=4;spacingRight=4;overflow=hidden;rotatable=0;points=[[0,0.5],[1,0.5]];portConstraint=eastwest;whiteSpace=wrap;html=1;" parent="rRB_AB-X7g9ggpwCLPEc-68" vertex="1">
          <mxGeometry y="26" width="150" height="26" as="geometry" />
        </mxCell>
        <mxCell id="rRB_AB-X7g9ggpwCLPEc-70" value="" style="line;strokeWidth=1;fillColor=none;align=left;verticalAlign=middle;spacingTop=-1;spacingLeft=3;spacingRight=3;rotatable=0;labelPosition=right;points=[];portConstraint=eastwest;strokeColor=inherit;" parent="rRB_AB-X7g9ggpwCLPEc-68" vertex="1">
          <mxGeometry y="52" width="150" height="8" as="geometry" />
        </mxCell>
        <mxCell id="rRB_AB-X7g9ggpwCLPEc-71" value="&lt;font color=&quot;#ffffff&quot;&gt;-&lt;/font&gt;" style="text;strokeColor=none;fillColor=none;align=left;verticalAlign=top;spacingLeft=4;spacingRight=4;overflow=hidden;rotatable=0;points=[[0,0.5],[1,0.5]];portConstraint=eastwest;whiteSpace=wrap;html=1;" parent="rRB_AB-X7g9ggpwCLPEc-68" vertex="1">
          <mxGeometry y="60" width="150" height="26" as="geometry" />
        </mxCell>
        <mxCell id="rRB_AB-X7g9ggpwCLPEc-74" value="" style="endArrow=none;dashed=1;html=1;rounded=1;startArrow=openThin;startFill=0;exitX=0.257;exitY=0;exitDx=0;exitDy=0;fillColor=#fa6800;strokeColor=#C73500;strokeWidth=1.5;entryX=0.75;entryY=0;entryDx=0;entryDy=0;exitPerimeter=0;" parent="1" source="rRB_AB-X7g9ggpwCLPEc-10" target="rRB_AB-X7g9ggpwCLPEc-1" edge="1">
          <mxGeometry width="50" height="50" relative="1" as="geometry">
            <mxPoint x="427.5" y="910" as="sourcePoint" />
            <mxPoint x="195" y="910" as="targetPoint" />
            <Array as="points">
              <mxPoint x="430" y="880" />
              <mxPoint x="273" y="880" />
            </Array>
          </mxGeometry>
        </mxCell>
        <mxCell id="rRB_AB-X7g9ggpwCLPEc-75" value="" style="endArrow=none;dashed=1;html=1;rounded=1;startArrow=openThin;startFill=0;fillColor=#fa6800;strokeColor=#C73500;strokeWidth=1.5;entryX=0.614;entryY=-0.003;entryDx=0;entryDy=0;entryPerimeter=0;" parent="1" target="rRB_AB-X7g9ggpwCLPEc-1" edge="1">
          <mxGeometry width="50" height="50" relative="1" as="geometry">
            <mxPoint x="690" y="909" as="sourcePoint" />
            <mxPoint x="230" y="900" as="targetPoint" />
            <Array as="points">
              <mxPoint x="690" y="860" />
              <mxPoint x="230" y="860" />
            </Array>
          </mxGeometry>
        </mxCell>
        <mxCell id="rRB_AB-X7g9ggpwCLPEc-76" value="" style="endArrow=none;dashed=1;html=1;rounded=1;startArrow=openThin;startFill=0;exitX=0.743;exitY=0.001;exitDx=0;exitDy=0;fillColor=#fa6800;strokeColor=#C73500;strokeWidth=1.5;entryX=0.149;entryY=-0.002;entryDx=0;entryDy=0;exitPerimeter=0;entryPerimeter=0;" parent="1" source="rRB_AB-X7g9ggpwCLPEc-19" target="rRB_AB-X7g9ggpwCLPEc-39" edge="1">
          <mxGeometry width="50" height="50" relative="1" as="geometry">
            <mxPoint x="1088" y="880" as="sourcePoint" />
            <mxPoint x="1392" y="879" as="targetPoint" />
            <Array as="points">
              <mxPoint x="1160" y="880" />
              <mxPoint x="1290" y="880" />
            </Array>
          </mxGeometry>
        </mxCell>
        <mxCell id="kFq2H20rjHX_EUCBnDA8-1" value="" style="endArrow=none;dashed=1;html=1;rounded=1;startArrow=openThin;startFill=0;fillColor=#fa6800;strokeColor=#C73500;strokeWidth=1.5;entryX=0.355;entryY=-0.006;entryDx=0;entryDy=0;exitX=0.75;exitY=0;exitDx=0;exitDy=0;entryPerimeter=0;" parent="1" source="rRB_AB-X7g9ggpwCLPEc-58" target="rRB_AB-X7g9ggpwCLPEc-39" edge="1">
          <mxGeometry width="50" height="50" relative="1" as="geometry">
            <mxPoint x="930" y="870" as="sourcePoint" />
            <mxPoint x="1441" y="880" as="targetPoint" />
            <Array as="points">
              <mxPoint x="873" y="860" />
              <mxPoint x="1360" y="860" />
            </Array>
          </mxGeometry>
        </mxCell>
        <mxCell id="kFq2H20rjHX_EUCBnDA8-2" value="" style="endArrow=none;dashed=1;html=1;rounded=1;startArrow=openThin;startFill=0;fillColor=#fa6800;strokeColor=#C73500;strokeWidth=1.5;entryX=0.349;entryY=-0.004;entryDx=0;entryDy=0;exitX=0.25;exitY=0;exitDx=0;exitDy=0;entryPerimeter=0;" parent="1" source="rRB_AB-X7g9ggpwCLPEc-1" target="rRB_AB-X7g9ggpwCLPEc-58" edge="1">
          <mxGeometry width="50" height="50" relative="1" as="geometry">
            <mxPoint x="240" y="830" as="sourcePoint" />
            <mxPoint x="773" y="830" as="targetPoint" />
            <Array as="points">
              <mxPoint x="118" y="840" />
              <mxPoint x="750" y="840" />
            </Array>
          </mxGeometry>
        </mxCell>
        <mxCell id="kFq2H20rjHX_EUCBnDA8-3" value="" style="endArrow=none;dashed=1;html=1;startArrow=openThin;startFill=0;exitX=0.534;exitY=-0.007;exitDx=0;exitDy=0;strokeColor=default;rounded=1;strokeWidth=1.5;exitPerimeter=0;entryX=0.509;entryY=1.069;entryDx=0;entryDy=0;entryPerimeter=0;" parent="1" source="rRB_AB-X7g9ggpwCLPEc-68" target="rRB_AB-X7g9ggpwCLPEc-26" edge="1">
          <mxGeometry width="50" height="50" relative="1" as="geometry">
            <mxPoint x="970" y="1244" as="sourcePoint" />
            <mxPoint x="1097" y="1130" as="targetPoint" />
            <Array as="points">
              <mxPoint x="1010" y="1170" />
              <mxPoint x="1097" y="1170" />
            </Array>
          </mxGeometry>
        </mxCell>
        <mxCell id="kFq2H20rjHX_EUCBnDA8-4" value="" style="endArrow=none;dashed=1;html=1;startArrow=openThin;startFill=0;strokeColor=default;rounded=1;strokeWidth=1.5;exitX=0.412;exitY=-0.007;exitDx=0;exitDy=0;exitPerimeter=0;" parent="1" source="rRB_AB-X7g9ggpwCLPEc-68" edge="1">
          <mxGeometry width="50" height="50" relative="1" as="geometry">
            <mxPoint x="930" y="1240" as="sourcePoint" />
            <mxPoint x="795" y="1100" as="targetPoint" />
            <Array as="points">
              <mxPoint x="990" y="1170" />
              <mxPoint x="795" y="1170" />
            </Array>
          </mxGeometry>
        </mxCell>
        <mxCell id="kFq2H20rjHX_EUCBnDA8-5" value="" style="endArrow=none;dashed=1;html=1;startArrow=openThin;startFill=0;entryX=0.508;entryY=1.046;entryDx=0;entryDy=0;strokeColor=default;rounded=1;strokeWidth=1.5;entryPerimeter=0;exitX=0.264;exitY=-0.01;exitDx=0;exitDy=0;exitPerimeter=0;" parent="1" source="rRB_AB-X7g9ggpwCLPEc-68" target="rRB_AB-X7g9ggpwCLPEc-18" edge="1">
          <mxGeometry width="50" height="50" relative="1" as="geometry">
            <mxPoint x="841.066650390625" y="1250" as="sourcePoint" />
            <mxPoint x="497" y="1120" as="targetPoint" />
            <Array as="points">
              <mxPoint x="970" y="1200" />
              <mxPoint x="497" y="1200" />
            </Array>
          </mxGeometry>
        </mxCell>
        <mxCell id="kFq2H20rjHX_EUCBnDA8-8" value="" style="endArrow=none;dashed=1;html=1;startArrow=openThin;startFill=0;entryX=0.485;entryY=1.004;entryDx=0;entryDy=0;strokeColor=default;rounded=1;strokeWidth=1.5;entryPerimeter=0;exitX=0.131;exitY=-0.01;exitDx=0;exitDy=0;exitPerimeter=0;" parent="1" source="rRB_AB-X7g9ggpwCLPEc-68" target="rRB_AB-X7g9ggpwCLPEc-9" edge="1">
          <mxGeometry width="50" height="50" relative="1" as="geometry">
            <mxPoint x="663" y="1288" as="sourcePoint" />
            <mxPoint x="190" y="1130" as="targetPoint" />
            <Array as="points">
              <mxPoint x="950" y="1230" />
              <mxPoint x="190" y="1229" />
            </Array>
          </mxGeometry>
        </mxCell>
        <mxCell id="kFq2H20rjHX_EUCBnDA8-9" value="" style="endArrow=none;dashed=1;html=1;startArrow=openThin;startFill=0;exitX=0.666;exitY=-0.004;exitDx=0;exitDy=0;strokeColor=default;rounded=1;strokeWidth=1.5;exitPerimeter=0;entryX=0.502;entryY=0.995;entryDx=0;entryDy=0;entryPerimeter=0;" parent="1" source="rRB_AB-X7g9ggpwCLPEc-68" target="rRB_AB-X7g9ggpwCLPEc-47" edge="1">
          <mxGeometry width="50" height="50" relative="1" as="geometry">
            <mxPoint x="1170" y="1291" as="sourcePoint" />
            <mxPoint x="1257" y="1160" as="targetPoint" />
            <Array as="points">
              <mxPoint x="1030" y="1200" />
              <mxPoint x="1406" y="1200" />
            </Array>
          </mxGeometry>
        </mxCell>
        <mxCell id="kFq2H20rjHX_EUCBnDA8-10" value="" style="endArrow=none;dashed=1;html=1;startArrow=openThin;startFill=0;exitX=0.818;exitY=-0.006;exitDx=0;exitDy=0;strokeColor=default;rounded=1;strokeWidth=1.5;exitPerimeter=0;entryX=0.501;entryY=0.994;entryDx=0;entryDy=0;entryPerimeter=0;" parent="1" source="rRB_AB-X7g9ggpwCLPEc-68" target="rRB_AB-X7g9ggpwCLPEc-33" edge="1">
          <mxGeometry width="50" height="50" relative="1" as="geometry">
            <mxPoint x="1052" y="1292" as="sourcePoint" />
            <mxPoint x="1730" y="1020" as="targetPoint" />
            <Array as="points">
              <mxPoint x="1052" y="1232" />
              <mxPoint x="1730" y="1230" />
            </Array>
          </mxGeometry>
        </mxCell>
        <mxCell id="kFq2H20rjHX_EUCBnDA8-11" value="Aeropuerto" style="swimlane;fontStyle=1;align=center;verticalAlign=top;childLayout=stackLayout;horizontal=1;startSize=26;horizontalStack=0;resizeParent=1;resizeParentMax=0;resizeLast=0;collapsible=1;marginBottom=0;whiteSpace=wrap;html=1;rounded=1;" parent="1" vertex="1">
          <mxGeometry x="2182" y="786" width="160" height="190" as="geometry" />
        </mxCell>
        <mxCell id="kFq2H20rjHX_EUCBnDA8-17" value="- codigo : string" style="text;strokeColor=none;fillColor=none;align=left;verticalAlign=top;spacingLeft=4;spacingRight=4;overflow=hidden;rotatable=0;points=[[0,0.5],[1,0.5]];portConstraint=eastwest;whiteSpace=wrap;html=1;" parent="kFq2H20rjHX_EUCBnDA8-11" vertex="1">
          <mxGeometry y="26" width="160" height="26" as="geometry" />
        </mxCell>
        <mxCell id="kFq2H20rjHX_EUCBnDA8-12" value="- nombre : string" style="text;strokeColor=none;fillColor=none;align=left;verticalAlign=top;spacingLeft=4;spacingRight=4;overflow=hidden;rotatable=0;points=[[0,0.5],[1,0.5]];portConstraint=eastwest;whiteSpace=wrap;html=1;" parent="kFq2H20rjHX_EUCBnDA8-11" vertex="1">
          <mxGeometry y="52" width="160" height="26" as="geometry" />
        </mxCell>
        <mxCell id="kFq2H20rjHX_EUCBnDA8-13" value="- direccion : string" style="text;strokeColor=none;fillColor=none;align=left;verticalAlign=top;spacingLeft=4;spacingRight=4;overflow=hidden;rotatable=0;points=[[0,0.5],[1,0.5]];portConstraint=eastwest;whiteSpace=wrap;html=1;" parent="kFq2H20rjHX_EUCBnDA8-11" vertex="1">
          <mxGeometry y="78" width="160" height="26" as="geometry" />
        </mxCell>
        <mxCell id="kFq2H20rjHX_EUCBnDA8-14" value="- impuestoPartida : double" style="text;strokeColor=none;fillColor=none;align=left;verticalAlign=top;spacingLeft=4;spacingRight=4;overflow=hidden;rotatable=0;points=[[0,0.5],[1,0.5]];portConstraint=eastwest;whiteSpace=wrap;html=1;" parent="kFq2H20rjHX_EUCBnDA8-11" vertex="1">
          <mxGeometry y="104" width="160" height="26" as="geometry" />
        </mxCell>
        <mxCell id="kFq2H20rjHX_EUCBnDA8-18" value="- impuestoLlegada : double" style="text;strokeColor=none;fillColor=none;align=left;verticalAlign=top;spacingLeft=4;spacingRight=4;overflow=hidden;rotatable=0;points=[[0,0.5],[1,0.5]];portConstraint=eastwest;whiteSpace=wrap;html=1;" parent="kFq2H20rjHX_EUCBnDA8-11" vertex="1">
          <mxGeometry y="130" width="160" height="26" as="geometry" />
        </mxCell>
        <mxCell id="kFq2H20rjHX_EUCBnDA8-15" value="" style="line;strokeWidth=1;fillColor=none;align=left;verticalAlign=middle;spacingTop=-1;spacingLeft=3;spacingRight=3;rotatable=0;labelPosition=right;points=[];portConstraint=eastwest;strokeColor=inherit;" parent="kFq2H20rjHX_EUCBnDA8-11" vertex="1">
          <mxGeometry y="156" width="160" height="8" as="geometry" />
        </mxCell>
        <mxCell id="kFq2H20rjHX_EUCBnDA8-16" value="+ toString() : string" style="text;strokeColor=none;fillColor=none;align=left;verticalAlign=top;spacingLeft=4;spacingRight=4;overflow=hidden;rotatable=0;points=[[0,0.5],[1,0.5]];portConstraint=eastwest;whiteSpace=wrap;html=1;" parent="kFq2H20rjHX_EUCBnDA8-11" vertex="1">
          <mxGeometry y="164" width="160" height="26" as="geometry" />
        </mxCell>
        <mxCell id="kFq2H20rjHX_EUCBnDA8-20" value="Ciudad" style="swimlane;fontStyle=1;align=center;verticalAlign=top;childLayout=stackLayout;horizontal=1;startSize=26;horizontalStack=0;resizeParent=1;resizeParentMax=0;resizeLast=0;collapsible=1;marginBottom=0;whiteSpace=wrap;html=1;rounded=1;" parent="1" vertex="1">
          <mxGeometry x="2182" y="1006" width="160" height="138" as="geometry" />
        </mxCell>
        <mxCell id="kFq2H20rjHX_EUCBnDA8-21" value="- codigo : string" style="text;strokeColor=none;fillColor=none;align=left;verticalAlign=top;spacingLeft=4;spacingRight=4;overflow=hidden;rotatable=0;points=[[0,0.5],[1,0.5]];portConstraint=eastwest;whiteSpace=wrap;html=1;" parent="kFq2H20rjHX_EUCBnDA8-20" vertex="1">
          <mxGeometry y="26" width="160" height="26" as="geometry" />
        </mxCell>
        <mxCell id="kFq2H20rjHX_EUCBnDA8-22" value="- nombreCiudad : string" style="text;strokeColor=none;fillColor=none;align=left;verticalAlign=top;spacingLeft=4;spacingRight=4;overflow=hidden;rotatable=0;points=[[0,0.5],[1,0.5]];portConstraint=eastwest;whiteSpace=wrap;html=1;" parent="kFq2H20rjHX_EUCBnDA8-20" vertex="1">
          <mxGeometry y="52" width="160" height="26" as="geometry" />
        </mxCell>
        <mxCell id="kFq2H20rjHX_EUCBnDA8-23" value="- pais : string" style="text;strokeColor=none;fillColor=none;align=left;verticalAlign=top;spacingLeft=4;spacingRight=4;overflow=hidden;rotatable=0;points=[[0,0.5],[1,0.5]];portConstraint=eastwest;whiteSpace=wrap;html=1;" parent="kFq2H20rjHX_EUCBnDA8-20" vertex="1">
          <mxGeometry y="78" width="160" height="26" as="geometry" />
        </mxCell>
        <mxCell id="kFq2H20rjHX_EUCBnDA8-26" value="" style="line;strokeWidth=1;fillColor=none;align=left;verticalAlign=middle;spacingTop=-1;spacingLeft=3;spacingRight=3;rotatable=0;labelPosition=right;points=[];portConstraint=eastwest;strokeColor=inherit;" parent="kFq2H20rjHX_EUCBnDA8-20" vertex="1">
          <mxGeometry y="104" width="160" height="8" as="geometry" />
        </mxCell>
        <mxCell id="kFq2H20rjHX_EUCBnDA8-27" value="+ toString() : string" style="text;strokeColor=none;fillColor=none;align=left;verticalAlign=top;spacingLeft=4;spacingRight=4;overflow=hidden;rotatable=0;points=[[0,0.5],[1,0.5]];portConstraint=eastwest;whiteSpace=wrap;html=1;" parent="kFq2H20rjHX_EUCBnDA8-20" vertex="1">
          <mxGeometry y="112" width="160" height="26" as="geometry" />
        </mxCell>
        <mxCell id="kFq2H20rjHX_EUCBnDA8-29" value="" style="endArrow=none;html=1;rounded=1;entryX=0;entryY=0.5;entryDx=0;entryDy=0;exitX=-0.001;exitY=0.539;exitDx=0;exitDy=0;startArrow=openThin;startFill=0;exitPerimeter=0;" parent="1" source="kFq2H20rjHX_EUCBnDA8-21" target="kFq2H20rjHX_EUCBnDA8-17" edge="1">
          <mxGeometry width="50" height="50" relative="1" as="geometry">
            <mxPoint x="2192" y="1206" as="sourcePoint" />
            <mxPoint x="2132" y="826" as="targetPoint" />
            <Array as="points">
              <mxPoint x="2142" y="1046" />
              <mxPoint x="2142" y="825" />
            </Array>
          </mxGeometry>
        </mxCell>
        <mxCell id="kFq2H20rjHX_EUCBnDA8-30" value="1" style="text;html=1;strokeColor=none;fillColor=none;align=center;verticalAlign=middle;whiteSpace=wrap;rounded=0;" parent="1" vertex="1">
          <mxGeometry x="2152" y="1026" width="30" height="26" as="geometry" />
        </mxCell>
        <mxCell id="kFq2H20rjHX_EUCBnDA8-31" value="&lt;font style=&quot;font-size: 25px;&quot;&gt;*&lt;/font&gt;" style="text;html=1;strokeColor=none;fillColor=none;align=center;verticalAlign=middle;whiteSpace=wrap;rounded=0;" parent="1" vertex="1">
          <mxGeometry x="2152" y="826" width="30" height="26" as="geometry" />
        </mxCell>
        <mxCell id="kFq2H20rjHX_EUCBnDA8-32" value="Cliente" style="swimlane;fontStyle=1;align=center;verticalAlign=top;childLayout=stackLayout;horizontal=1;startSize=26;horizontalStack=0;resizeParent=1;resizeParentMax=0;resizeLast=0;collapsible=1;marginBottom=0;whiteSpace=wrap;html=1;rounded=1;" parent="1" vertex="1">
          <mxGeometry x="2182" y="190" width="160" height="164" as="geometry" />
        </mxCell>
        <mxCell id="kFq2H20rjHX_EUCBnDA8-33" value="- numPasaporte : string" style="text;strokeColor=none;fillColor=none;align=left;verticalAlign=top;spacingLeft=4;spacingRight=4;overflow=hidden;rotatable=0;points=[[0,0.5],[1,0.5]];portConstraint=eastwest;whiteSpace=wrap;html=1;" parent="kFq2H20rjHX_EUCBnDA8-32" vertex="1">
          <mxGeometry y="26" width="160" height="26" as="geometry" />
        </mxCell>
        <mxCell id="kFq2H20rjHX_EUCBnDA8-34" value="- nombre : string" style="text;strokeColor=none;fillColor=none;align=left;verticalAlign=top;spacingLeft=4;spacingRight=4;overflow=hidden;rotatable=0;points=[[0,0.5],[1,0.5]];portConstraint=eastwest;whiteSpace=wrap;html=1;" parent="kFq2H20rjHX_EUCBnDA8-32" vertex="1">
          <mxGeometry y="52" width="160" height="26" as="geometry" />
        </mxCell>
        <mxCell id="kFq2H20rjHX_EUCBnDA8-35" value="- numTarCre : string" style="text;strokeColor=none;fillColor=none;align=left;verticalAlign=top;spacingLeft=4;spacingRight=4;overflow=hidden;rotatable=0;points=[[0,0.5],[1,0.5]];portConstraint=eastwest;whiteSpace=wrap;html=1;" parent="kFq2H20rjHX_EUCBnDA8-32" vertex="1">
          <mxGeometry y="78" width="160" height="26" as="geometry" />
        </mxCell>
        <mxCell id="kFq2H20rjHX_EUCBnDA8-38" value="- contrasenia : string" style="text;strokeColor=none;fillColor=none;align=left;verticalAlign=top;spacingLeft=4;spacingRight=4;overflow=hidden;rotatable=0;points=[[0,0.5],[1,0.5]];portConstraint=eastwest;whiteSpace=wrap;html=1;" parent="kFq2H20rjHX_EUCBnDA8-32" vertex="1">
          <mxGeometry y="104" width="160" height="26" as="geometry" />
        </mxCell>
        <mxCell id="kFq2H20rjHX_EUCBnDA8-36" value="" style="line;strokeWidth=1;fillColor=none;align=left;verticalAlign=middle;spacingTop=-1;spacingLeft=3;spacingRight=3;rotatable=0;labelPosition=right;points=[];portConstraint=eastwest;strokeColor=inherit;" parent="kFq2H20rjHX_EUCBnDA8-32" vertex="1">
          <mxGeometry y="130" width="160" height="8" as="geometry" />
        </mxCell>
        <mxCell id="kFq2H20rjHX_EUCBnDA8-37" value="+ toString() : string" style="text;strokeColor=none;fillColor=none;align=left;verticalAlign=top;spacingLeft=4;spacingRight=4;overflow=hidden;rotatable=0;points=[[0,0.5],[1,0.5]];portConstraint=eastwest;whiteSpace=wrap;html=1;" parent="kFq2H20rjHX_EUCBnDA8-32" vertex="1">
          <mxGeometry y="138" width="160" height="26" as="geometry" />
        </mxCell>
        <mxCell id="kFq2H20rjHX_EUCBnDA8-39" value="Empleado" style="swimlane;fontStyle=1;align=center;verticalAlign=top;childLayout=stackLayout;horizontal=1;startSize=26;horizontalStack=0;resizeParent=1;resizeParentMax=0;resizeLast=0;collapsible=1;marginBottom=0;whiteSpace=wrap;html=1;rounded=1;" parent="1" vertex="1">
          <mxGeometry x="2182" y="1181" width="160" height="164" as="geometry" />
        </mxCell>
        <mxCell id="kFq2H20rjHX_EUCBnDA8-40" value="- nombreUsuario : string" style="text;strokeColor=none;fillColor=none;align=left;verticalAlign=top;spacingLeft=4;spacingRight=4;overflow=hidden;rotatable=0;points=[[0,0.5],[1,0.5]];portConstraint=eastwest;whiteSpace=wrap;html=1;" parent="kFq2H20rjHX_EUCBnDA8-39" vertex="1">
          <mxGeometry y="26" width="160" height="26" as="geometry" />
        </mxCell>
        <mxCell id="kFq2H20rjHX_EUCBnDA8-41" value="- contrasenia : string" style="text;strokeColor=none;fillColor=none;align=left;verticalAlign=top;spacingLeft=4;spacingRight=4;overflow=hidden;rotatable=0;points=[[0,0.5],[1,0.5]];portConstraint=eastwest;whiteSpace=wrap;html=1;" parent="kFq2H20rjHX_EUCBnDA8-39" vertex="1">
          <mxGeometry y="52" width="160" height="26" as="geometry" />
        </mxCell>
        <mxCell id="kFq2H20rjHX_EUCBnDA8-42" value="- nombreCompleto : string" style="text;strokeColor=none;fillColor=none;align=left;verticalAlign=top;spacingLeft=4;spacingRight=4;overflow=hidden;rotatable=0;points=[[0,0.5],[1,0.5]];portConstraint=eastwest;whiteSpace=wrap;html=1;" parent="kFq2H20rjHX_EUCBnDA8-39" vertex="1">
          <mxGeometry y="78" width="160" height="26" as="geometry" />
        </mxCell>
        <mxCell id="kFq2H20rjHX_EUCBnDA8-43" value="- labor : string" style="text;strokeColor=none;fillColor=none;align=left;verticalAlign=top;spacingLeft=4;spacingRight=4;overflow=hidden;rotatable=0;points=[[0,0.5],[1,0.5]];portConstraint=eastwest;whiteSpace=wrap;html=1;" parent="kFq2H20rjHX_EUCBnDA8-39" vertex="1">
          <mxGeometry y="104" width="160" height="26" as="geometry" />
        </mxCell>
        <mxCell id="kFq2H20rjHX_EUCBnDA8-44" value="" style="line;strokeWidth=1;fillColor=none;align=left;verticalAlign=middle;spacingTop=-1;spacingLeft=3;spacingRight=3;rotatable=0;labelPosition=right;points=[];portConstraint=eastwest;strokeColor=inherit;" parent="kFq2H20rjHX_EUCBnDA8-39" vertex="1">
          <mxGeometry y="130" width="160" height="8" as="geometry" />
        </mxCell>
        <mxCell id="kFq2H20rjHX_EUCBnDA8-45" value="+ toString() : string" style="text;strokeColor=none;fillColor=none;align=left;verticalAlign=top;spacingLeft=4;spacingRight=4;overflow=hidden;rotatable=0;points=[[0,0.5],[1,0.5]];portConstraint=eastwest;whiteSpace=wrap;html=1;" parent="kFq2H20rjHX_EUCBnDA8-39" vertex="1">
          <mxGeometry y="138" width="160" height="26" as="geometry" />
        </mxCell>
        <mxCell id="kFq2H20rjHX_EUCBnDA8-46" value="Vuelo" style="swimlane;fontStyle=1;align=center;verticalAlign=top;childLayout=stackLayout;horizontal=1;startSize=26;horizontalStack=0;resizeParent=1;resizeParentMax=0;resizeLast=0;collapsible=1;marginBottom=0;whiteSpace=wrap;html=1;rounded=1;" parent="1" vertex="1">
          <mxGeometry x="2182" y="545" width="160" height="190" as="geometry" />
        </mxCell>
        <mxCell id="kFq2H20rjHX_EUCBnDA8-47" value="- codigo : string" style="text;strokeColor=none;fillColor=none;align=left;verticalAlign=top;spacingLeft=4;spacingRight=4;overflow=hidden;rotatable=0;points=[[0,0.5],[1,0.5]];portConstraint=eastwest;whiteSpace=wrap;html=1;" parent="kFq2H20rjHX_EUCBnDA8-46" vertex="1">
          <mxGeometry y="26" width="160" height="26" as="geometry" />
        </mxCell>
        <mxCell id="kFq2H20rjHX_EUCBnDA8-48" value="- fecHorSalida : DateTime" style="text;strokeColor=none;fillColor=none;align=left;verticalAlign=top;spacingLeft=4;spacingRight=4;overflow=hidden;rotatable=0;points=[[0,0.5],[1,0.5]];portConstraint=eastwest;whiteSpace=wrap;html=1;" parent="kFq2H20rjHX_EUCBnDA8-46" vertex="1">
          <mxGeometry y="52" width="160" height="26" as="geometry" />
        </mxCell>
        <mxCell id="kFq2H20rjHX_EUCBnDA8-49" value="- fecHorLlegada: DateTime" style="text;strokeColor=none;fillColor=none;align=left;verticalAlign=top;spacingLeft=4;spacingRight=4;overflow=hidden;rotatable=0;points=[[0,0.5],[1,0.5]];portConstraint=eastwest;whiteSpace=wrap;html=1;" parent="kFq2H20rjHX_EUCBnDA8-46" vertex="1">
          <mxGeometry y="78" width="160" height="26" as="geometry" />
        </mxCell>
        <mxCell id="kFq2H20rjHX_EUCBnDA8-50" value="- precio : double" style="text;strokeColor=none;fillColor=none;align=left;verticalAlign=top;spacingLeft=4;spacingRight=4;overflow=hidden;rotatable=0;points=[[0,0.5],[1,0.5]];portConstraint=eastwest;whiteSpace=wrap;html=1;" parent="kFq2H20rjHX_EUCBnDA8-46" vertex="1">
          <mxGeometry y="104" width="160" height="26" as="geometry" />
        </mxCell>
        <mxCell id="kFq2H20rjHX_EUCBnDA8-51" value="- asientos : int" style="text;strokeColor=none;fillColor=none;align=left;verticalAlign=top;spacingLeft=4;spacingRight=4;overflow=hidden;rotatable=0;points=[[0,0.5],[1,0.5]];portConstraint=eastwest;whiteSpace=wrap;html=1;" parent="kFq2H20rjHX_EUCBnDA8-46" vertex="1">
          <mxGeometry y="130" width="160" height="26" as="geometry" />
        </mxCell>
        <mxCell id="kFq2H20rjHX_EUCBnDA8-52" value="" style="line;strokeWidth=1;fillColor=none;align=left;verticalAlign=middle;spacingTop=-1;spacingLeft=3;spacingRight=3;rotatable=0;labelPosition=right;points=[];portConstraint=eastwest;strokeColor=inherit;" parent="kFq2H20rjHX_EUCBnDA8-46" vertex="1">
          <mxGeometry y="156" width="160" height="8" as="geometry" />
        </mxCell>
        <mxCell id="kFq2H20rjHX_EUCBnDA8-53" value="+ toString() : string" style="text;strokeColor=none;fillColor=none;align=left;verticalAlign=top;spacingLeft=4;spacingRight=4;overflow=hidden;rotatable=0;points=[[0,0.5],[1,0.5]];portConstraint=eastwest;whiteSpace=wrap;html=1;" parent="kFq2H20rjHX_EUCBnDA8-46" vertex="1">
          <mxGeometry y="164" width="160" height="26" as="geometry" />
        </mxCell>
        <mxCell id="kFq2H20rjHX_EUCBnDA8-54" value="" style="endArrow=none;html=1;rounded=1;entryX=0;entryY=0.131;entryDx=0;entryDy=0;exitX=-0.004;exitY=0.129;exitDx=0;exitDy=0;startArrow=openThin;startFill=0;exitPerimeter=0;entryPerimeter=0;" parent="1" source="kFq2H20rjHX_EUCBnDA8-11" target="kFq2H20rjHX_EUCBnDA8-46" edge="1">
          <mxGeometry width="50" height="50" relative="1" as="geometry">
            <mxPoint x="2172" y="801" as="sourcePoint" />
            <mxPoint x="2172" y="580" as="targetPoint" />
            <Array as="points">
              <mxPoint x="2142" y="810" />
              <mxPoint x="2142" y="570" />
            </Array>
          </mxGeometry>
        </mxCell>
        <mxCell id="kFq2H20rjHX_EUCBnDA8-55" value="&lt;font style=&quot;font-size: 25px;&quot;&gt;*&lt;/font&gt;" style="text;html=1;strokeColor=none;fillColor=none;align=center;verticalAlign=middle;whiteSpace=wrap;rounded=0;" parent="1" vertex="1">
          <mxGeometry x="2152" y="570" width="30" height="26" as="geometry" />
        </mxCell>
        <mxCell id="kFq2H20rjHX_EUCBnDA8-58" value="1" style="text;html=1;strokeColor=none;fillColor=none;align=center;verticalAlign=middle;whiteSpace=wrap;rounded=0;" parent="1" vertex="1">
          <mxGeometry x="2152" y="786" width="30" height="26" as="geometry" />
        </mxCell>
        <mxCell id="kFq2H20rjHX_EUCBnDA8-59" value="" style="endArrow=none;html=1;rounded=1;entryX=1.001;entryY=-0.012;entryDx=0;entryDy=0;exitX=1.001;exitY=0.132;exitDx=0;exitDy=0;startArrow=openThin;startFill=0;exitPerimeter=0;entryPerimeter=0;" parent="1" source="kFq2H20rjHX_EUCBnDA8-11" target="kFq2H20rjHX_EUCBnDA8-47" edge="1">
          <mxGeometry width="50" height="50" relative="1" as="geometry">
            <mxPoint x="2422" y="812" as="sourcePoint" />
            <mxPoint x="2423" y="571" as="targetPoint" />
            <Array as="points">
              <mxPoint x="2383" y="811" />
              <mxPoint x="2383" y="571" />
            </Array>
          </mxGeometry>
        </mxCell>
        <mxCell id="kFq2H20rjHX_EUCBnDA8-62" value="1" style="text;html=1;strokeColor=none;fillColor=none;align=center;verticalAlign=middle;whiteSpace=wrap;rounded=0;" parent="1" vertex="1">
          <mxGeometry x="2342" y="786" width="30" height="26" as="geometry" />
        </mxCell>
        <mxCell id="kFq2H20rjHX_EUCBnDA8-63" value="&lt;font style=&quot;font-size: 25px;&quot;&gt;*&lt;/font&gt;" style="text;html=1;strokeColor=none;fillColor=none;align=center;verticalAlign=middle;whiteSpace=wrap;rounded=0;" parent="1" vertex="1">
          <mxGeometry x="2342" y="570" width="30" height="26" as="geometry" />
        </mxCell>
        <mxCell id="kFq2H20rjHX_EUCBnDA8-64" value="Pasaje" style="swimlane;fontStyle=1;align=center;verticalAlign=top;childLayout=stackLayout;horizontal=1;startSize=26;horizontalStack=0;resizeParent=1;resizeParentMax=0;resizeLast=0;collapsible=1;marginBottom=0;whiteSpace=wrap;html=1;rounded=1;" parent="1" vertex="1">
          <mxGeometry x="2182" y="380" width="160" height="138" as="geometry" />
        </mxCell>
        <mxCell id="kFq2H20rjHX_EUCBnDA8-65" value="- numVenta : int" style="text;strokeColor=none;fillColor=none;align=left;verticalAlign=top;spacingLeft=4;spacingRight=4;overflow=hidden;rotatable=0;points=[[0,0.5],[1,0.5]];portConstraint=eastwest;whiteSpace=wrap;html=1;" parent="kFq2H20rjHX_EUCBnDA8-64" vertex="1">
          <mxGeometry y="26" width="160" height="26" as="geometry" />
        </mxCell>
        <mxCell id="kFq2H20rjHX_EUCBnDA8-66" value="- fecha : DateTime" style="text;strokeColor=none;fillColor=none;align=left;verticalAlign=top;spacingLeft=4;spacingRight=4;overflow=hidden;rotatable=0;points=[[0,0.5],[1,0.5]];portConstraint=eastwest;whiteSpace=wrap;html=1;" parent="kFq2H20rjHX_EUCBnDA8-64" vertex="1">
          <mxGeometry y="52" width="160" height="26" as="geometry" />
        </mxCell>
        <mxCell id="kFq2H20rjHX_EUCBnDA8-67" value="- precio : double" style="text;strokeColor=none;fillColor=none;align=left;verticalAlign=top;spacingLeft=4;spacingRight=4;overflow=hidden;rotatable=0;points=[[0,0.5],[1,0.5]];portConstraint=eastwest;whiteSpace=wrap;html=1;" parent="kFq2H20rjHX_EUCBnDA8-64" vertex="1">
          <mxGeometry y="78" width="160" height="26" as="geometry" />
        </mxCell>
        <mxCell id="kFq2H20rjHX_EUCBnDA8-69" value="" style="line;strokeWidth=1;fillColor=none;align=left;verticalAlign=middle;spacingTop=-1;spacingLeft=3;spacingRight=3;rotatable=0;labelPosition=right;points=[];portConstraint=eastwest;strokeColor=inherit;" parent="kFq2H20rjHX_EUCBnDA8-64" vertex="1">
          <mxGeometry y="104" width="160" height="8" as="geometry" />
        </mxCell>
        <mxCell id="kFq2H20rjHX_EUCBnDA8-70" value="+ toString() : string" style="text;strokeColor=none;fillColor=none;align=left;verticalAlign=top;spacingLeft=4;spacingRight=4;overflow=hidden;rotatable=0;points=[[0,0.5],[1,0.5]];portConstraint=eastwest;whiteSpace=wrap;html=1;" parent="kFq2H20rjHX_EUCBnDA8-64" vertex="1">
          <mxGeometry y="112" width="160" height="26" as="geometry" />
        </mxCell>
        <mxCell id="kFq2H20rjHX_EUCBnDA8-71" value="" style="endArrow=none;html=1;rounded=1;entryX=0;entryY=0.145;entryDx=0;entryDy=0;exitX=-0.004;exitY=0.129;exitDx=0;exitDy=0;startArrow=openThin;startFill=0;exitPerimeter=0;entryPerimeter=0;" parent="1" target="kFq2H20rjHX_EUCBnDA8-64" edge="1">
          <mxGeometry width="50" height="50" relative="1" as="geometry">
            <mxPoint x="2181" y="561" as="sourcePoint" />
            <mxPoint x="2182" y="320" as="targetPoint" />
            <Array as="points">
              <mxPoint x="2142" y="560" />
              <mxPoint x="2142" y="400" />
            </Array>
          </mxGeometry>
        </mxCell>
        <mxCell id="kFq2H20rjHX_EUCBnDA8-73" value="1" style="text;html=1;strokeColor=none;fillColor=none;align=center;verticalAlign=middle;whiteSpace=wrap;rounded=0;" parent="1" vertex="1">
          <mxGeometry x="2152" y="532" width="30" height="26" as="geometry" />
        </mxCell>
        <mxCell id="kFq2H20rjHX_EUCBnDA8-75" value="&lt;font style=&quot;font-size: 25px;&quot;&gt;*&lt;/font&gt;" style="text;html=1;strokeColor=none;fillColor=none;align=center;verticalAlign=middle;whiteSpace=wrap;rounded=0;" parent="1" vertex="1">
          <mxGeometry x="2152" y="400" width="30" height="26" as="geometry" />
        </mxCell>
        <mxCell id="kFq2H20rjHX_EUCBnDA8-76" value="" style="endArrow=none;html=1;rounded=1;entryX=1.001;entryY=0.142;entryDx=0;entryDy=0;exitX=1.012;exitY=0.118;exitDx=0;exitDy=0;startArrow=openThin;startFill=0;exitPerimeter=0;entryPerimeter=0;" parent="1" source="kFq2H20rjHX_EUCBnDA8-32" target="kFq2H20rjHX_EUCBnDA8-64" edge="1">
          <mxGeometry width="50" height="50" relative="1" as="geometry">
            <mxPoint x="2423" y="210" as="sourcePoint" />
            <mxPoint x="2422" y="371" as="targetPoint" />
            <Array as="points">
              <mxPoint x="2383" y="210" />
              <mxPoint x="2382" y="400" />
            </Array>
          </mxGeometry>
        </mxCell>
        <mxCell id="kFq2H20rjHX_EUCBnDA8-77" value="&lt;font style=&quot;font-size: 25px;&quot;&gt;*&lt;/font&gt;" style="text;html=1;strokeColor=none;fillColor=none;align=center;verticalAlign=middle;whiteSpace=wrap;rounded=0;" parent="1" vertex="1">
          <mxGeometry x="2342" y="380" width="30" height="26" as="geometry" />
        </mxCell>
        <mxCell id="kFq2H20rjHX_EUCBnDA8-78" value="1" style="text;html=1;strokeColor=none;fillColor=none;align=center;verticalAlign=middle;whiteSpace=wrap;rounded=0;" parent="1" vertex="1">
          <mxGeometry x="2342" y="210" width="30" height="26" as="geometry" />
        </mxCell>
        <mxCell id="kFq2H20rjHX_EUCBnDA8-83" value="LogicaAeropuerto" style="swimlane;fontStyle=1;align=center;verticalAlign=top;childLayout=stackLayout;horizontal=1;startSize=26;horizontalStack=0;resizeParent=1;resizeParentMax=0;resizeLast=0;collapsible=1;marginBottom=0;whiteSpace=wrap;html=1;rounded=1;" parent="1" vertex="1">
          <mxGeometry x="150" y="365" width="247" height="190" as="geometry" />
        </mxCell>
        <mxCell id="kFq2H20rjHX_EUCBnDA8-84" value="&lt;font color=&quot;#ffffff&quot;&gt;-&lt;/font&gt;" style="text;strokeColor=none;fillColor=none;align=left;verticalAlign=top;spacingLeft=4;spacingRight=4;overflow=hidden;rotatable=0;points=[[0,0.5],[1,0.5]];portConstraint=eastwest;whiteSpace=wrap;html=1;" parent="kFq2H20rjHX_EUCBnDA8-83" vertex="1">
          <mxGeometry y="26" width="247" height="26" as="geometry" />
        </mxCell>
        <mxCell id="kFq2H20rjHX_EUCBnDA8-85" value="" style="line;strokeWidth=1;fillColor=none;align=left;verticalAlign=middle;spacingTop=-1;spacingLeft=3;spacingRight=3;rotatable=0;labelPosition=right;points=[];portConstraint=eastwest;strokeColor=inherit;" parent="kFq2H20rjHX_EUCBnDA8-83" vertex="1">
          <mxGeometry y="52" width="247" height="8" as="geometry" />
        </mxCell>
        <mxCell id="kFq2H20rjHX_EUCBnDA8-86" value="&lt;u&gt;+ Agregar (aAeropuerto :&amp;nbsp;&lt;/u&gt;&lt;u style=&quot;border-color: var(--border-color);&quot;&gt;Aeropuerto&lt;/u&gt;&lt;u&gt;)&lt;/u&gt;" style="text;strokeColor=none;fillColor=none;align=left;verticalAlign=top;spacingLeft=4;spacingRight=4;overflow=hidden;rotatable=0;points=[[0,0.5],[1,0.5]];portConstraint=eastwest;whiteSpace=wrap;html=1;" parent="kFq2H20rjHX_EUCBnDA8-83" vertex="1">
          <mxGeometry y="60" width="247" height="26" as="geometry" />
        </mxCell>
        <mxCell id="kFq2H20rjHX_EUCBnDA8-87" value="&lt;u&gt;+ Modificar (&lt;/u&gt;&lt;u style=&quot;border-color: var(--border-color);&quot;&gt;aAeropuerto :&amp;nbsp;&lt;/u&gt;&lt;u style=&quot;border-color: var(--border-color);&quot;&gt;Aeropuerto&lt;/u&gt;&lt;u&gt;)&lt;/u&gt;" style="text;strokeColor=none;fillColor=none;align=left;verticalAlign=top;spacingLeft=4;spacingRight=4;overflow=hidden;rotatable=0;points=[[0,0.5],[1,0.5]];portConstraint=eastwest;whiteSpace=wrap;html=1;" parent="kFq2H20rjHX_EUCBnDA8-83" vertex="1">
          <mxGeometry y="86" width="247" height="26" as="geometry" />
        </mxCell>
        <mxCell id="kFq2H20rjHX_EUCBnDA8-88" value="&lt;u&gt;+ Eliminar (&lt;/u&gt;&lt;u style=&quot;border-color: var(--border-color);&quot;&gt;aAeropuerto :&amp;nbsp;&lt;/u&gt;&lt;u style=&quot;border-color: var(--border-color);&quot;&gt;Aeropuerto&lt;/u&gt;&lt;u&gt;)&lt;/u&gt;" style="text;strokeColor=none;fillColor=none;align=left;verticalAlign=top;spacingLeft=4;spacingRight=4;overflow=hidden;rotatable=0;points=[[0,0.5],[1,0.5]];portConstraint=eastwest;whiteSpace=wrap;html=1;" parent="kFq2H20rjHX_EUCBnDA8-83" vertex="1">
          <mxGeometry y="112" width="247" height="26" as="geometry" />
        </mxCell>
        <mxCell id="kFq2H20rjHX_EUCBnDA8-89" value="&lt;u&gt;+ Buscar (aAeropuerto&amp;nbsp;: string) : Aeropuerto&lt;/u&gt;" style="text;strokeColor=none;fillColor=none;align=left;verticalAlign=top;spacingLeft=4;spacingRight=4;overflow=hidden;rotatable=0;points=[[0,0.5],[1,0.5]];portConstraint=eastwest;whiteSpace=wrap;html=1;" parent="kFq2H20rjHX_EUCBnDA8-83" vertex="1">
          <mxGeometry y="138" width="247" height="26" as="geometry" />
        </mxCell>
        <mxCell id="kFq2H20rjHX_EUCBnDA8-90" value="&lt;u&gt;+ ListarAeropuertos() : Lista de Aeropuertos&lt;/u&gt;" style="text;strokeColor=none;fillColor=none;align=left;verticalAlign=top;spacingLeft=4;spacingRight=4;overflow=hidden;rotatable=0;points=[[0,0.5],[1,0.5]];portConstraint=eastwest;whiteSpace=wrap;html=1;" parent="kFq2H20rjHX_EUCBnDA8-83" vertex="1">
          <mxGeometry y="164" width="247" height="26" as="geometry" />
        </mxCell>
        <mxCell id="kFq2H20rjHX_EUCBnDA8-91" value="LogicaCiudad" style="swimlane;fontStyle=1;align=center;verticalAlign=top;childLayout=stackLayout;horizontal=1;startSize=26;horizontalStack=0;resizeParent=1;resizeParentMax=0;resizeLast=0;collapsible=1;marginBottom=0;whiteSpace=wrap;html=1;rounded=1;" parent="1" vertex="1">
          <mxGeometry x="410" y="365" width="220" height="190" as="geometry" />
        </mxCell>
        <mxCell id="kFq2H20rjHX_EUCBnDA8-92" value="&lt;font color=&quot;#ffffff&quot;&gt;-&lt;/font&gt;" style="text;strokeColor=none;fillColor=none;align=left;verticalAlign=top;spacingLeft=4;spacingRight=4;overflow=hidden;rotatable=0;points=[[0,0.5],[1,0.5]];portConstraint=eastwest;whiteSpace=wrap;html=1;" parent="kFq2H20rjHX_EUCBnDA8-91" vertex="1">
          <mxGeometry y="26" width="220" height="26" as="geometry" />
        </mxCell>
        <mxCell id="kFq2H20rjHX_EUCBnDA8-93" value="" style="line;strokeWidth=1;fillColor=none;align=left;verticalAlign=middle;spacingTop=-1;spacingLeft=3;spacingRight=3;rotatable=0;labelPosition=right;points=[];portConstraint=eastwest;strokeColor=inherit;" parent="kFq2H20rjHX_EUCBnDA8-91" vertex="1">
          <mxGeometry y="52" width="220" height="8" as="geometry" />
        </mxCell>
        <mxCell id="kFq2H20rjHX_EUCBnDA8-94" value="&lt;u&gt;+ Agregar (&lt;/u&gt;&lt;u&gt;cCiudad :&amp;nbsp;&lt;/u&gt;&lt;u style=&quot;border-color: var(--border-color);&quot;&gt;Ciudad&lt;/u&gt;&lt;u&gt;)&lt;/u&gt;" style="text;strokeColor=none;fillColor=none;align=left;verticalAlign=top;spacingLeft=4;spacingRight=4;overflow=hidden;rotatable=0;points=[[0,0.5],[1,0.5]];portConstraint=eastwest;whiteSpace=wrap;html=1;" parent="kFq2H20rjHX_EUCBnDA8-91" vertex="1">
          <mxGeometry y="60" width="220" height="26" as="geometry" />
        </mxCell>
        <mxCell id="kFq2H20rjHX_EUCBnDA8-95" value="&lt;u&gt;+ Modificar (&lt;/u&gt;&lt;u style=&quot;border-color: var(--border-color);&quot;&gt;cCiudad :&amp;nbsp;&lt;/u&gt;&lt;u style=&quot;border-color: var(--border-color);&quot;&gt;Ciudad&lt;/u&gt;&lt;u&gt;)&lt;/u&gt;" style="text;strokeColor=none;fillColor=none;align=left;verticalAlign=top;spacingLeft=4;spacingRight=4;overflow=hidden;rotatable=0;points=[[0,0.5],[1,0.5]];portConstraint=eastwest;whiteSpace=wrap;html=1;" parent="kFq2H20rjHX_EUCBnDA8-91" vertex="1">
          <mxGeometry y="86" width="220" height="26" as="geometry" />
        </mxCell>
        <mxCell id="kFq2H20rjHX_EUCBnDA8-96" value="&lt;u&gt;+ Eliminar (&lt;/u&gt;&lt;u style=&quot;border-color: var(--border-color);&quot;&gt;cCiudad :&amp;nbsp;&lt;/u&gt;&lt;u style=&quot;border-color: var(--border-color);&quot;&gt;Ciudad&lt;/u&gt;&lt;u&gt;)&lt;/u&gt;" style="text;strokeColor=none;fillColor=none;align=left;verticalAlign=top;spacingLeft=4;spacingRight=4;overflow=hidden;rotatable=0;points=[[0,0.5],[1,0.5]];portConstraint=eastwest;whiteSpace=wrap;html=1;" parent="kFq2H20rjHX_EUCBnDA8-91" vertex="1">
          <mxGeometry y="112" width="220" height="26" as="geometry" />
        </mxCell>
        <mxCell id="kFq2H20rjHX_EUCBnDA8-97" value="&lt;u&gt;+ Buscar (cCiudad : string) : Ciudad&lt;/u&gt;" style="text;strokeColor=none;fillColor=none;align=left;verticalAlign=top;spacingLeft=4;spacingRight=4;overflow=hidden;rotatable=0;points=[[0,0.5],[1,0.5]];portConstraint=eastwest;whiteSpace=wrap;html=1;" parent="kFq2H20rjHX_EUCBnDA8-91" vertex="1">
          <mxGeometry y="138" width="220" height="26" as="geometry" />
        </mxCell>
        <mxCell id="kFq2H20rjHX_EUCBnDA8-98" value="&lt;u&gt;+ ListarCiudades() : Lista de Ciudades&lt;/u&gt;" style="text;strokeColor=none;fillColor=none;align=left;verticalAlign=top;spacingLeft=4;spacingRight=4;overflow=hidden;rotatable=0;points=[[0,0.5],[1,0.5]];portConstraint=eastwest;whiteSpace=wrap;html=1;" parent="kFq2H20rjHX_EUCBnDA8-91" vertex="1">
          <mxGeometry y="164" width="220" height="26" as="geometry" />
        </mxCell>
        <mxCell id="kFq2H20rjHX_EUCBnDA8-99" value="LogicaCliente" style="swimlane;fontStyle=1;align=center;verticalAlign=top;childLayout=stackLayout;horizontal=1;startSize=26;horizontalStack=0;resizeParent=1;resizeParentMax=0;resizeLast=0;collapsible=1;marginBottom=0;whiteSpace=wrap;html=1;rounded=1;" parent="1" vertex="1">
          <mxGeometry x="940" y="365" width="270" height="216" as="geometry" />
        </mxCell>
        <mxCell id="kFq2H20rjHX_EUCBnDA8-100" value="&lt;font color=&quot;#ffffff&quot;&gt;-&lt;/font&gt;" style="text;strokeColor=none;fillColor=none;align=left;verticalAlign=top;spacingLeft=4;spacingRight=4;overflow=hidden;rotatable=0;points=[[0,0.5],[1,0.5]];portConstraint=eastwest;whiteSpace=wrap;html=1;" parent="kFq2H20rjHX_EUCBnDA8-99" vertex="1">
          <mxGeometry y="26" width="270" height="26" as="geometry" />
        </mxCell>
        <mxCell id="kFq2H20rjHX_EUCBnDA8-101" value="" style="line;strokeWidth=1;fillColor=none;align=left;verticalAlign=middle;spacingTop=-1;spacingLeft=3;spacingRight=3;rotatable=0;labelPosition=right;points=[];portConstraint=eastwest;strokeColor=inherit;" parent="kFq2H20rjHX_EUCBnDA8-99" vertex="1">
          <mxGeometry y="52" width="270" height="8" as="geometry" />
        </mxCell>
        <mxCell id="kFq2H20rjHX_EUCBnDA8-102" value="&lt;u style=&quot;border-color: var(--border-color);&quot;&gt;+ Logueo ( pUsu&amp;nbsp;&lt;/u&gt;&lt;u style=&quot;border-color: var(--border-color);&quot;&gt;:&amp;nbsp;&lt;/u&gt;&lt;u style=&quot;border-color: var(--border-color);&quot;&gt;string, pPass : string&lt;/u&gt;&lt;u style=&quot;border-color: var(--border-color);&quot;&gt;) : Cliente&lt;/u&gt;" style="text;strokeColor=none;fillColor=none;align=left;verticalAlign=top;spacingLeft=4;spacingRight=4;overflow=hidden;rotatable=0;points=[[0,0.5],[1,0.5]];portConstraint=eastwest;whiteSpace=wrap;html=1;" parent="kFq2H20rjHX_EUCBnDA8-99" vertex="1">
          <mxGeometry y="60" width="270" height="26" as="geometry" />
        </mxCell>
        <mxCell id="kFq2H20rjHX_EUCBnDA8-107" value="&lt;u style=&quot;border-color: var(--border-color);&quot;&gt;+ Agregar (&lt;/u&gt;&lt;u style=&quot;border-color: var(--border-color);&quot;&gt;cCliente :&amp;nbsp;&lt;/u&gt;&lt;u style=&quot;border-color: var(--border-color);&quot;&gt;Cliente&lt;/u&gt;&lt;u style=&quot;border-color: var(--border-color);&quot;&gt;)&lt;/u&gt;" style="text;strokeColor=none;fillColor=none;align=left;verticalAlign=top;spacingLeft=4;spacingRight=4;overflow=hidden;rotatable=0;points=[[0,0.5],[1,0.5]];portConstraint=eastwest;whiteSpace=wrap;html=1;" parent="kFq2H20rjHX_EUCBnDA8-99" vertex="1">
          <mxGeometry y="86" width="270" height="26" as="geometry" />
        </mxCell>
        <mxCell id="kFq2H20rjHX_EUCBnDA8-103" value="&lt;u&gt;+ Modificar (&lt;/u&gt;&lt;u style=&quot;border-color: var(--border-color);&quot;&gt;cCliente :&amp;nbsp;&lt;/u&gt;&lt;u style=&quot;border-color: var(--border-color);&quot;&gt;Cliente&lt;/u&gt;&lt;u&gt;)&lt;/u&gt;" style="text;strokeColor=none;fillColor=none;align=left;verticalAlign=top;spacingLeft=4;spacingRight=4;overflow=hidden;rotatable=0;points=[[0,0.5],[1,0.5]];portConstraint=eastwest;whiteSpace=wrap;html=1;" parent="kFq2H20rjHX_EUCBnDA8-99" vertex="1">
          <mxGeometry y="112" width="270" height="26" as="geometry" />
        </mxCell>
        <mxCell id="kFq2H20rjHX_EUCBnDA8-104" value="&lt;u&gt;+ Eliminar (&lt;/u&gt;&lt;u style=&quot;border-color: var(--border-color);&quot;&gt;cCliente :&amp;nbsp;&lt;/u&gt;&lt;u style=&quot;border-color: var(--border-color);&quot;&gt;Cliente&lt;/u&gt;&lt;u&gt;)&lt;/u&gt;" style="text;strokeColor=none;fillColor=none;align=left;verticalAlign=top;spacingLeft=4;spacingRight=4;overflow=hidden;rotatable=0;points=[[0,0.5],[1,0.5]];portConstraint=eastwest;whiteSpace=wrap;html=1;" parent="kFq2H20rjHX_EUCBnDA8-99" vertex="1">
          <mxGeometry y="138" width="270" height="26" as="geometry" />
        </mxCell>
        <mxCell id="kFq2H20rjHX_EUCBnDA8-105" value="&lt;u&gt;+ Buscar (&lt;/u&gt;&lt;u style=&quot;border-color: var(--border-color);&quot;&gt;cCliente&lt;/u&gt;&lt;u&gt;&amp;nbsp;: string) : Cliente&lt;/u&gt;" style="text;strokeColor=none;fillColor=none;align=left;verticalAlign=top;spacingLeft=4;spacingRight=4;overflow=hidden;rotatable=0;points=[[0,0.5],[1,0.5]];portConstraint=eastwest;whiteSpace=wrap;html=1;" parent="kFq2H20rjHX_EUCBnDA8-99" vertex="1">
          <mxGeometry y="164" width="270" height="26" as="geometry" />
        </mxCell>
        <mxCell id="kFq2H20rjHX_EUCBnDA8-106" value="&lt;u&gt;+ ListarClientes() : Lista de Clientes&lt;/u&gt;" style="text;strokeColor=none;fillColor=none;align=left;verticalAlign=top;spacingLeft=4;spacingRight=4;overflow=hidden;rotatable=0;points=[[0,0.5],[1,0.5]];portConstraint=eastwest;whiteSpace=wrap;html=1;" parent="kFq2H20rjHX_EUCBnDA8-99" vertex="1">
          <mxGeometry y="190" width="270" height="26" as="geometry" />
        </mxCell>
        <mxCell id="kFq2H20rjHX_EUCBnDA8-108" value="LogicaEmpleado" style="swimlane;fontStyle=1;align=center;verticalAlign=top;childLayout=stackLayout;horizontal=1;startSize=26;horizontalStack=0;resizeParent=1;resizeParentMax=0;resizeLast=0;collapsible=1;marginBottom=0;whiteSpace=wrap;html=1;rounded=1;" parent="1" vertex="1">
          <mxGeometry x="1510" y="365" width="290" height="86" as="geometry" />
        </mxCell>
        <mxCell id="kFq2H20rjHX_EUCBnDA8-109" value="&lt;font color=&quot;#ffffff&quot;&gt;-&lt;/font&gt;" style="text;strokeColor=none;fillColor=none;align=left;verticalAlign=top;spacingLeft=4;spacingRight=4;overflow=hidden;rotatable=0;points=[[0,0.5],[1,0.5]];portConstraint=eastwest;whiteSpace=wrap;html=1;" parent="kFq2H20rjHX_EUCBnDA8-108" vertex="1">
          <mxGeometry y="26" width="290" height="26" as="geometry" />
        </mxCell>
        <mxCell id="kFq2H20rjHX_EUCBnDA8-110" value="" style="line;strokeWidth=1;fillColor=none;align=left;verticalAlign=middle;spacingTop=-1;spacingLeft=3;spacingRight=3;rotatable=0;labelPosition=right;points=[];portConstraint=eastwest;strokeColor=inherit;" parent="kFq2H20rjHX_EUCBnDA8-108" vertex="1">
          <mxGeometry y="52" width="290" height="8" as="geometry" />
        </mxCell>
        <mxCell id="kFq2H20rjHX_EUCBnDA8-111" value="&lt;u style=&quot;border-color: var(--border-color);&quot;&gt;+ Logueo ( pUsu&amp;nbsp;&lt;/u&gt;&lt;u style=&quot;border-color: var(--border-color);&quot;&gt;:&amp;nbsp;&lt;/u&gt;&lt;u style=&quot;border-color: var(--border-color);&quot;&gt;string, pPass : string&lt;/u&gt;&lt;u style=&quot;border-color: var(--border-color);&quot;&gt;) : Empleado&lt;/u&gt;" style="text;strokeColor=none;fillColor=none;align=left;verticalAlign=top;spacingLeft=4;spacingRight=4;overflow=hidden;rotatable=0;points=[[0,0.5],[1,0.5]];portConstraint=eastwest;whiteSpace=wrap;html=1;" parent="kFq2H20rjHX_EUCBnDA8-108" vertex="1">
          <mxGeometry y="60" width="290" height="26" as="geometry" />
        </mxCell>
        <mxCell id="kFq2H20rjHX_EUCBnDA8-117" value="LogicaPasaje" style="swimlane;fontStyle=1;align=center;verticalAlign=top;childLayout=stackLayout;horizontal=1;startSize=26;horizontalStack=0;resizeParent=1;resizeParentMax=0;resizeLast=0;collapsible=1;marginBottom=0;whiteSpace=wrap;html=1;rounded=1;" parent="1" vertex="1">
          <mxGeometry x="1220" y="365" width="280" height="138" as="geometry" />
        </mxCell>
        <mxCell id="kFq2H20rjHX_EUCBnDA8-118" value="&lt;font color=&quot;#ffffff&quot;&gt;-&lt;/font&gt;" style="text;strokeColor=none;fillColor=none;align=left;verticalAlign=top;spacingLeft=4;spacingRight=4;overflow=hidden;rotatable=0;points=[[0,0.5],[1,0.5]];portConstraint=eastwest;whiteSpace=wrap;html=1;" parent="kFq2H20rjHX_EUCBnDA8-117" vertex="1">
          <mxGeometry y="26" width="280" height="26" as="geometry" />
        </mxCell>
        <mxCell id="kFq2H20rjHX_EUCBnDA8-119" value="" style="line;strokeWidth=1;fillColor=none;align=left;verticalAlign=middle;spacingTop=-1;spacingLeft=3;spacingRight=3;rotatable=0;labelPosition=right;points=[];portConstraint=eastwest;strokeColor=inherit;" parent="kFq2H20rjHX_EUCBnDA8-117" vertex="1">
          <mxGeometry y="52" width="280" height="8" as="geometry" />
        </mxCell>
        <mxCell id="kFq2H20rjHX_EUCBnDA8-120" value="&lt;u&gt;+ Agregar (&lt;/u&gt;&lt;u&gt;pPasaje&amp;nbsp;:&amp;nbsp;&lt;/u&gt;&lt;u style=&quot;border-color: var(--border-color);&quot;&gt;Pasaje&lt;/u&gt;&lt;u&gt;)&lt;/u&gt;" style="text;strokeColor=none;fillColor=none;align=left;verticalAlign=top;spacingLeft=4;spacingRight=4;overflow=hidden;rotatable=0;points=[[0,0.5],[1,0.5]];portConstraint=eastwest;whiteSpace=wrap;html=1;" parent="kFq2H20rjHX_EUCBnDA8-117" vertex="1">
          <mxGeometry y="60" width="280" height="26" as="geometry" />
        </mxCell>
        <mxCell id="kFq2H20rjHX_EUCBnDA8-124" value="&lt;u style=&quot;border-color: var(--border-color);&quot;&gt;+ ListarPasajesUsuario(pPasaje : string) : Pasaje&lt;/u&gt;" style="text;strokeColor=none;fillColor=none;align=left;verticalAlign=top;spacingLeft=4;spacingRight=4;overflow=hidden;rotatable=0;points=[[0,0.5],[1,0.5]];portConstraint=eastwest;whiteSpace=wrap;html=1;" parent="kFq2H20rjHX_EUCBnDA8-117" vertex="1">
          <mxGeometry y="86" width="280" height="26" as="geometry" />
        </mxCell>
        <mxCell id="kFq2H20rjHX_EUCBnDA8-125" value="&lt;u&gt;+ ListarPasajes() : Lista de Pasajes&lt;/u&gt;" style="text;strokeColor=none;fillColor=none;align=left;verticalAlign=top;spacingLeft=4;spacingRight=4;overflow=hidden;rotatable=0;points=[[0,0.5],[1,0.5]];portConstraint=eastwest;whiteSpace=wrap;html=1;" parent="kFq2H20rjHX_EUCBnDA8-117" vertex="1">
          <mxGeometry y="112" width="280" height="26" as="geometry" />
        </mxCell>
        <mxCell id="kFq2H20rjHX_EUCBnDA8-126" value="LogicaVuelo" style="swimlane;fontStyle=1;align=center;verticalAlign=top;childLayout=stackLayout;horizontal=1;startSize=26;horizontalStack=0;resizeParent=1;resizeParentMax=0;resizeLast=0;collapsible=1;marginBottom=0;whiteSpace=wrap;html=1;rounded=1;" parent="1" vertex="1">
          <mxGeometry x="640" y="365" width="290" height="190" as="geometry" />
        </mxCell>
        <mxCell id="kFq2H20rjHX_EUCBnDA8-127" value="&lt;font color=&quot;#ffffff&quot;&gt;-&lt;/font&gt;" style="text;strokeColor=none;fillColor=none;align=left;verticalAlign=top;spacingLeft=4;spacingRight=4;overflow=hidden;rotatable=0;points=[[0,0.5],[1,0.5]];portConstraint=eastwest;whiteSpace=wrap;html=1;" parent="kFq2H20rjHX_EUCBnDA8-126" vertex="1">
          <mxGeometry y="26" width="290" height="26" as="geometry" />
        </mxCell>
        <mxCell id="kFq2H20rjHX_EUCBnDA8-128" value="" style="line;strokeWidth=1;fillColor=none;align=left;verticalAlign=middle;spacingTop=-1;spacingLeft=3;spacingRight=3;rotatable=0;labelPosition=right;points=[];portConstraint=eastwest;strokeColor=inherit;" parent="kFq2H20rjHX_EUCBnDA8-126" vertex="1">
          <mxGeometry y="52" width="290" height="8" as="geometry" />
        </mxCell>
        <mxCell id="kFq2H20rjHX_EUCBnDA8-129" value="&lt;u&gt;+ Agregar (&lt;/u&gt;&lt;u&gt;vVuelo:&amp;nbsp;&lt;/u&gt;&lt;u style=&quot;border-color: var(--border-color);&quot;&gt;Vuelo&lt;/u&gt;&lt;u&gt;)&lt;/u&gt;" style="text;strokeColor=none;fillColor=none;align=left;verticalAlign=top;spacingLeft=4;spacingRight=4;overflow=hidden;rotatable=0;points=[[0,0.5],[1,0.5]];portConstraint=eastwest;whiteSpace=wrap;html=1;" parent="kFq2H20rjHX_EUCBnDA8-126" vertex="1">
          <mxGeometry y="60" width="290" height="26" as="geometry" />
        </mxCell>
        <mxCell id="kFq2H20rjHX_EUCBnDA8-130" value="&lt;u style=&quot;border-color: var(--border-color);&quot;&gt;+ Buscar (vVuelo: string) : Vuelo&lt;/u&gt;" style="text;strokeColor=none;fillColor=none;align=left;verticalAlign=top;spacingLeft=4;spacingRight=4;overflow=hidden;rotatable=0;points=[[0,0.5],[1,0.5]];portConstraint=eastwest;whiteSpace=wrap;html=1;" parent="kFq2H20rjHX_EUCBnDA8-126" vertex="1">
          <mxGeometry y="86" width="290" height="26" as="geometry" />
        </mxCell>
        <mxCell id="kFq2H20rjHX_EUCBnDA8-131" value="&lt;u style=&quot;border-color: var(--border-color);&quot;&gt;+ ListarPartidas(codigoAeropuerto : string) : Vuelo&lt;/u&gt;" style="text;strokeColor=none;fillColor=none;align=left;verticalAlign=top;spacingLeft=4;spacingRight=4;overflow=hidden;rotatable=0;points=[[0,0.5],[1,0.5]];portConstraint=eastwest;whiteSpace=wrap;html=1;" parent="kFq2H20rjHX_EUCBnDA8-126" vertex="1">
          <mxGeometry y="112" width="290" height="26" as="geometry" />
        </mxCell>
        <mxCell id="kFq2H20rjHX_EUCBnDA8-132" value="&lt;u style=&quot;border-color: var(--border-color);&quot;&gt;+ ListarArribos(codigoAeropuerto : string) : Vuelo&lt;/u&gt;" style="text;strokeColor=none;fillColor=none;align=left;verticalAlign=top;spacingLeft=4;spacingRight=4;overflow=hidden;rotatable=0;points=[[0,0.5],[1,0.5]];portConstraint=eastwest;whiteSpace=wrap;html=1;" parent="kFq2H20rjHX_EUCBnDA8-126" vertex="1">
          <mxGeometry y="138" width="290" height="26" as="geometry" />
        </mxCell>
        <mxCell id="kFq2H20rjHX_EUCBnDA8-133" value="&lt;u&gt;+ ListarVuelos() : Lista de Vuelos&lt;/u&gt;" style="text;strokeColor=none;fillColor=none;align=left;verticalAlign=top;spacingLeft=4;spacingRight=4;overflow=hidden;rotatable=0;points=[[0,0.5],[1,0.5]];portConstraint=eastwest;whiteSpace=wrap;html=1;" parent="kFq2H20rjHX_EUCBnDA8-126" vertex="1">
          <mxGeometry y="164" width="290" height="26" as="geometry" />
        </mxCell>
        <mxCell id="kFq2H20rjHX_EUCBnDA8-134" value="" style="endArrow=none;dashed=1;html=1;rounded=1;startArrow=openThin;startFill=0;exitX=0.5;exitY=0;exitDx=0;exitDy=0;strokeWidth=1.5;" parent="1" source="rRB_AB-X7g9ggpwCLPEc-1" edge="1">
          <mxGeometry width="50" height="50" relative="1" as="geometry">
            <mxPoint x="195" y="914" as="sourcePoint" />
            <mxPoint x="274" y="554" as="targetPoint" />
            <Array as="points">
              <mxPoint x="195" y="670" />
              <mxPoint x="274" y="670" />
            </Array>
          </mxGeometry>
        </mxCell>
        <mxCell id="kFq2H20rjHX_EUCBnDA8-135" value="" style="endArrow=none;dashed=1;html=1;rounded=1;startArrow=openThin;startFill=0;exitX=0.5;exitY=0;exitDx=0;exitDy=0;strokeWidth=1.5;" parent="1" source="rRB_AB-X7g9ggpwCLPEc-10" edge="1">
          <mxGeometry width="50" height="50" relative="1" as="geometry">
            <mxPoint x="440" y="912" as="sourcePoint" />
            <mxPoint x="519" y="556" as="targetPoint" />
            <Array as="points">
              <mxPoint x="495" y="670" />
              <mxPoint x="519" y="672" />
            </Array>
          </mxGeometry>
        </mxCell>
        <mxCell id="kFq2H20rjHX_EUCBnDA8-136" value="" style="endArrow=none;dashed=1;html=1;rounded=1;startArrow=openThin;startFill=0;exitX=0.5;exitY=0;exitDx=0;exitDy=0;strokeWidth=1.5;" parent="1" source="rRB_AB-X7g9ggpwCLPEc-58" edge="1">
          <mxGeometry width="50" height="50" relative="1" as="geometry">
            <mxPoint x="720" y="764" as="sourcePoint" />
            <mxPoint x="785" y="555.0158962673611" as="targetPoint" />
            <Array as="points">
              <mxPoint x="795" y="670" />
              <mxPoint x="785" y="670" />
            </Array>
          </mxGeometry>
        </mxCell>
        <mxCell id="kFq2H20rjHX_EUCBnDA8-137" value="" style="endArrow=none;dashed=1;html=1;rounded=1;startArrow=openThin;startFill=0;exitX=0.5;exitY=0;exitDx=0;exitDy=0;strokeWidth=1.5;" parent="1" source="rRB_AB-X7g9ggpwCLPEc-19" edge="1">
          <mxGeometry width="50" height="50" relative="1" as="geometry">
            <mxPoint x="1090" y="755.98" as="sourcePoint" />
            <mxPoint x="1075" y="581" as="targetPoint" />
            <Array as="points">
              <mxPoint x="1095" y="670" />
              <mxPoint x="1075" y="670" />
            </Array>
          </mxGeometry>
        </mxCell>
        <mxCell id="kFq2H20rjHX_EUCBnDA8-138" value="" style="endArrow=none;dashed=1;html=1;rounded=1;startArrow=openThin;startFill=0;exitX=0.5;exitY=0;exitDx=0;exitDy=0;strokeWidth=1.5;entryX=0.5;entryY=0;entryDx=0;entryDy=0;" parent="1" source="rRB_AB-X7g9ggpwCLPEc-39" edge="1">
          <mxGeometry width="50" height="50" relative="1" as="geometry">
            <mxPoint x="1380" y="867" as="sourcePoint" />
            <mxPoint x="1360" y="503" as="targetPoint" />
            <Array as="points">
              <mxPoint x="1406" y="670" />
              <mxPoint x="1360" y="670" />
            </Array>
          </mxGeometry>
        </mxCell>
        <mxCell id="kFq2H20rjHX_EUCBnDA8-139" value="" style="endArrow=none;dashed=1;html=1;rounded=1;startArrow=openThin;startFill=0;exitX=0.5;exitY=0;exitDx=0;exitDy=0;strokeWidth=1.5;entryX=0.5;entryY=0;entryDx=0;entryDy=0;" parent="1" source="rRB_AB-X7g9ggpwCLPEc-30" edge="1">
          <mxGeometry width="50" height="50" relative="1" as="geometry">
            <mxPoint x="1674" y="829" as="sourcePoint" />
            <mxPoint x="1655" y="450.9999999999999" as="targetPoint" />
            <Array as="points">
              <mxPoint x="1725" y="670" />
              <mxPoint x="1655" y="670" />
            </Array>
          </mxGeometry>
        </mxCell>
        <mxCell id="7rD_yf8-9EhT5BPNzDUf-1" value="ABMAeropuertos" style="swimlane;fontStyle=1;align=center;verticalAlign=top;childLayout=stackLayout;horizontal=1;startSize=26;horizontalStack=0;resizeParent=1;resizeParentMax=0;resizeLast=0;collapsible=1;marginBottom=0;whiteSpace=wrap;html=1;rounded=1;" parent="1" vertex="1">
          <mxGeometry y="-380" width="330" height="320" as="geometry" />
        </mxCell>
        <mxCell id="7rD_yf8-9EhT5BPNzDUf-2" value="&lt;font color=&quot;#ffffff&quot;&gt;-&lt;/font&gt;" style="text;strokeColor=none;fillColor=none;align=left;verticalAlign=top;spacingLeft=4;spacingRight=4;overflow=hidden;rotatable=0;points=[[0,0.5],[1,0.5]];portConstraint=eastwest;whiteSpace=wrap;html=1;" parent="7rD_yf8-9EhT5BPNzDUf-1" vertex="1">
          <mxGeometry y="26" width="330" height="26" as="geometry" />
        </mxCell>
        <mxCell id="7rD_yf8-9EhT5BPNzDUf-3" value="" style="line;strokeWidth=1;fillColor=none;align=left;verticalAlign=middle;spacingTop=-1;spacingLeft=3;spacingRight=3;rotatable=0;labelPosition=right;points=[];portConstraint=eastwest;strokeColor=inherit;" parent="7rD_yf8-9EhT5BPNzDUf-1" vertex="1">
          <mxGeometry y="52" width="330" height="8" as="geometry" />
        </mxCell>
        <mxCell id="7rD_yf8-9EhT5BPNzDUf-4" value="# Page_Load (sender : object, e : EventArgs)" style="text;strokeColor=none;fillColor=none;align=left;verticalAlign=top;spacingLeft=4;spacingRight=4;overflow=hidden;rotatable=0;points=[[0,0.5],[1,0.5]];portConstraint=eastwest;whiteSpace=wrap;html=1;" parent="7rD_yf8-9EhT5BPNzDUf-1" vertex="1">
          <mxGeometry y="60" width="330" height="26" as="geometry" />
        </mxCell>
        <mxCell id="7rD_yf8-9EhT5BPNzDUf-5" value="- LimpioFormulario()" style="text;strokeColor=none;fillColor=none;align=left;verticalAlign=top;spacingLeft=4;spacingRight=4;overflow=hidden;rotatable=0;points=[[0,0.5],[1,0.5]];portConstraint=eastwest;whiteSpace=wrap;html=1;" parent="7rD_yf8-9EhT5BPNzDUf-1" vertex="1">
          <mxGeometry y="86" width="330" height="26" as="geometry" />
        </mxCell>
        <mxCell id="7rD_yf8-9EhT5BPNzDUf-6" value="- ActivoBotones (esAlta : bool)" style="text;strokeColor=none;fillColor=none;align=left;verticalAlign=top;spacingLeft=4;spacingRight=4;overflow=hidden;rotatable=0;points=[[0,0.5],[1,0.5]];portConstraint=eastwest;whiteSpace=wrap;html=1;" parent="7rD_yf8-9EhT5BPNzDUf-1" vertex="1">
          <mxGeometry y="112" width="330" height="26" as="geometry" />
        </mxCell>
        <mxCell id="7rD_yf8-9EhT5BPNzDUf-8" value="# btnBuscar_Click (sender : object, e : EventArgs)" style="text;strokeColor=none;fillColor=none;align=left;verticalAlign=top;spacingLeft=4;spacingRight=4;overflow=hidden;rotatable=0;points=[[0,0.5],[1,0.5]];portConstraint=eastwest;whiteSpace=wrap;html=1;" parent="7rD_yf8-9EhT5BPNzDUf-1" vertex="1">
          <mxGeometry y="138" width="330" height="26" as="geometry" />
        </mxCell>
        <mxCell id="7rD_yf8-9EhT5BPNzDUf-9" value="# btnAgregar_Click (sender : object, e : EventArgs)" style="text;strokeColor=none;fillColor=none;align=left;verticalAlign=top;spacingLeft=4;spacingRight=4;overflow=hidden;rotatable=0;points=[[0,0.5],[1,0.5]];portConstraint=eastwest;whiteSpace=wrap;html=1;" parent="7rD_yf8-9EhT5BPNzDUf-1" vertex="1">
          <mxGeometry y="164" width="330" height="26" as="geometry" />
        </mxCell>
        <mxCell id="7rD_yf8-9EhT5BPNzDUf-10" value="# btnModificar_Click (sender : object, e : EventArgs)" style="text;strokeColor=none;fillColor=none;align=left;verticalAlign=top;spacingLeft=4;spacingRight=4;overflow=hidden;rotatable=0;points=[[0,0.5],[1,0.5]];portConstraint=eastwest;whiteSpace=wrap;html=1;" parent="7rD_yf8-9EhT5BPNzDUf-1" vertex="1">
          <mxGeometry y="190" width="330" height="26" as="geometry" />
        </mxCell>
        <mxCell id="7rD_yf8-9EhT5BPNzDUf-11" value="# btnEliminar_Click (sender : object, e : EventArgs)" style="text;strokeColor=none;fillColor=none;align=left;verticalAlign=top;spacingLeft=4;spacingRight=4;overflow=hidden;rotatable=0;points=[[0,0.5],[1,0.5]];portConstraint=eastwest;whiteSpace=wrap;html=1;" parent="7rD_yf8-9EhT5BPNzDUf-1" vertex="1">
          <mxGeometry y="216" width="330" height="26" as="geometry" />
        </mxCell>
        <mxCell id="7rD_yf8-9EhT5BPNzDUf-7" value="# btnLimpiar_Click (sender : object, e : EventArgs)" style="text;strokeColor=none;fillColor=none;align=left;verticalAlign=top;spacingLeft=4;spacingRight=4;overflow=hidden;rotatable=0;points=[[0,0.5],[1,0.5]];portConstraint=eastwest;whiteSpace=wrap;html=1;" parent="7rD_yf8-9EhT5BPNzDUf-1" vertex="1">
          <mxGeometry y="242" width="330" height="26" as="geometry" />
        </mxCell>
        <mxCell id="7rD_yf8-9EhT5BPNzDUf-12" value="- CargarDropDownList()" style="text;strokeColor=none;fillColor=none;align=left;verticalAlign=top;spacingLeft=4;spacingRight=4;overflow=hidden;rotatable=0;points=[[0,0.5],[1,0.5]];portConstraint=eastwest;whiteSpace=wrap;html=1;" parent="7rD_yf8-9EhT5BPNzDUf-1" vertex="1">
          <mxGeometry y="268" width="330" height="26" as="geometry" />
        </mxCell>
        <mxCell id="7rD_yf8-9EhT5BPNzDUf-13" value="- ObtenerCodigoCiudadPorNombre(ciudadNombre : string)" style="text;strokeColor=none;fillColor=none;align=left;verticalAlign=top;spacingLeft=4;spacingRight=4;overflow=hidden;rotatable=0;points=[[0,0.5],[1,0.5]];portConstraint=eastwest;whiteSpace=wrap;html=1;" parent="7rD_yf8-9EhT5BPNzDUf-1" vertex="1">
          <mxGeometry y="294" width="330" height="26" as="geometry" />
        </mxCell>
        <mxCell id="7rD_yf8-9EhT5BPNzDUf-14" value="ABMCiudades" style="swimlane;fontStyle=1;align=center;verticalAlign=top;childLayout=stackLayout;horizontal=1;startSize=26;horizontalStack=0;resizeParent=1;resizeParentMax=0;resizeLast=0;collapsible=1;marginBottom=0;whiteSpace=wrap;html=1;rounded=1;" parent="1" vertex="1">
          <mxGeometry x="380" y="-380" width="330" height="268" as="geometry" />
        </mxCell>
        <mxCell id="7rD_yf8-9EhT5BPNzDUf-15" value="&lt;font color=&quot;#ffffff&quot;&gt;-&lt;/font&gt;" style="text;strokeColor=none;fillColor=none;align=left;verticalAlign=top;spacingLeft=4;spacingRight=4;overflow=hidden;rotatable=0;points=[[0,0.5],[1,0.5]];portConstraint=eastwest;whiteSpace=wrap;html=1;" parent="7rD_yf8-9EhT5BPNzDUf-14" vertex="1">
          <mxGeometry y="26" width="330" height="26" as="geometry" />
        </mxCell>
        <mxCell id="7rD_yf8-9EhT5BPNzDUf-16" value="" style="line;strokeWidth=1;fillColor=none;align=left;verticalAlign=middle;spacingTop=-1;spacingLeft=3;spacingRight=3;rotatable=0;labelPosition=right;points=[];portConstraint=eastwest;strokeColor=inherit;" parent="7rD_yf8-9EhT5BPNzDUf-14" vertex="1">
          <mxGeometry y="52" width="330" height="8" as="geometry" />
        </mxCell>
        <mxCell id="7rD_yf8-9EhT5BPNzDUf-17" value="# Page_Load (sender : object, e : EventArgs)" style="text;strokeColor=none;fillColor=none;align=left;verticalAlign=top;spacingLeft=4;spacingRight=4;overflow=hidden;rotatable=0;points=[[0,0.5],[1,0.5]];portConstraint=eastwest;whiteSpace=wrap;html=1;" parent="7rD_yf8-9EhT5BPNzDUf-14" vertex="1">
          <mxGeometry y="60" width="330" height="26" as="geometry" />
        </mxCell>
        <mxCell id="7rD_yf8-9EhT5BPNzDUf-18" value="- LimpioFormulario()" style="text;strokeColor=none;fillColor=none;align=left;verticalAlign=top;spacingLeft=4;spacingRight=4;overflow=hidden;rotatable=0;points=[[0,0.5],[1,0.5]];portConstraint=eastwest;whiteSpace=wrap;html=1;" parent="7rD_yf8-9EhT5BPNzDUf-14" vertex="1">
          <mxGeometry y="86" width="330" height="26" as="geometry" />
        </mxCell>
        <mxCell id="7rD_yf8-9EhT5BPNzDUf-19" value="- ActivoBotones (esAlta : bool)" style="text;strokeColor=none;fillColor=none;align=left;verticalAlign=top;spacingLeft=4;spacingRight=4;overflow=hidden;rotatable=0;points=[[0,0.5],[1,0.5]];portConstraint=eastwest;whiteSpace=wrap;html=1;" parent="7rD_yf8-9EhT5BPNzDUf-14" vertex="1">
          <mxGeometry y="112" width="330" height="26" as="geometry" />
        </mxCell>
        <mxCell id="7rD_yf8-9EhT5BPNzDUf-20" value="# btnBuscar_Click (sender : object, e : EventArgs)" style="text;strokeColor=none;fillColor=none;align=left;verticalAlign=top;spacingLeft=4;spacingRight=4;overflow=hidden;rotatable=0;points=[[0,0.5],[1,0.5]];portConstraint=eastwest;whiteSpace=wrap;html=1;" parent="7rD_yf8-9EhT5BPNzDUf-14" vertex="1">
          <mxGeometry y="138" width="330" height="26" as="geometry" />
        </mxCell>
        <mxCell id="7rD_yf8-9EhT5BPNzDUf-21" value="# btnAgregar_Click (sender : object, e : EventArgs)" style="text;strokeColor=none;fillColor=none;align=left;verticalAlign=top;spacingLeft=4;spacingRight=4;overflow=hidden;rotatable=0;points=[[0,0.5],[1,0.5]];portConstraint=eastwest;whiteSpace=wrap;html=1;" parent="7rD_yf8-9EhT5BPNzDUf-14" vertex="1">
          <mxGeometry y="164" width="330" height="26" as="geometry" />
        </mxCell>
        <mxCell id="7rD_yf8-9EhT5BPNzDUf-22" value="# btnModificar_Click (sender : object, e : EventArgs)" style="text;strokeColor=none;fillColor=none;align=left;verticalAlign=top;spacingLeft=4;spacingRight=4;overflow=hidden;rotatable=0;points=[[0,0.5],[1,0.5]];portConstraint=eastwest;whiteSpace=wrap;html=1;" parent="7rD_yf8-9EhT5BPNzDUf-14" vertex="1">
          <mxGeometry y="190" width="330" height="26" as="geometry" />
        </mxCell>
        <mxCell id="7rD_yf8-9EhT5BPNzDUf-23" value="# btnEliminar_Click (sender : object, e : EventArgs)" style="text;strokeColor=none;fillColor=none;align=left;verticalAlign=top;spacingLeft=4;spacingRight=4;overflow=hidden;rotatable=0;points=[[0,0.5],[1,0.5]];portConstraint=eastwest;whiteSpace=wrap;html=1;" parent="7rD_yf8-9EhT5BPNzDUf-14" vertex="1">
          <mxGeometry y="216" width="330" height="26" as="geometry" />
        </mxCell>
        <mxCell id="7rD_yf8-9EhT5BPNzDUf-24" value="# btnLimpiar_Click (sender : object, e : EventArgs)" style="text;strokeColor=none;fillColor=none;align=left;verticalAlign=top;spacingLeft=4;spacingRight=4;overflow=hidden;rotatable=0;points=[[0,0.5],[1,0.5]];portConstraint=eastwest;whiteSpace=wrap;html=1;" parent="7rD_yf8-9EhT5BPNzDUf-14" vertex="1">
          <mxGeometry y="242" width="330" height="26" as="geometry" />
        </mxCell>
        <mxCell id="7rD_yf8-9EhT5BPNzDUf-27" value="ABMClientes" style="swimlane;fontStyle=1;align=center;verticalAlign=top;childLayout=stackLayout;horizontal=1;startSize=26;horizontalStack=0;resizeParent=1;resizeParentMax=0;resizeLast=0;collapsible=1;marginBottom=0;whiteSpace=wrap;html=1;rounded=1;" parent="1" vertex="1">
          <mxGeometry x="760" y="-380" width="330" height="268" as="geometry" />
        </mxCell>
        <mxCell id="7rD_yf8-9EhT5BPNzDUf-28" value="&lt;font color=&quot;#ffffff&quot;&gt;-&lt;/font&gt;" style="text;strokeColor=none;fillColor=none;align=left;verticalAlign=top;spacingLeft=4;spacingRight=4;overflow=hidden;rotatable=0;points=[[0,0.5],[1,0.5]];portConstraint=eastwest;whiteSpace=wrap;html=1;" parent="7rD_yf8-9EhT5BPNzDUf-27" vertex="1">
          <mxGeometry y="26" width="330" height="26" as="geometry" />
        </mxCell>
        <mxCell id="7rD_yf8-9EhT5BPNzDUf-29" value="" style="line;strokeWidth=1;fillColor=none;align=left;verticalAlign=middle;spacingTop=-1;spacingLeft=3;spacingRight=3;rotatable=0;labelPosition=right;points=[];portConstraint=eastwest;strokeColor=inherit;" parent="7rD_yf8-9EhT5BPNzDUf-27" vertex="1">
          <mxGeometry y="52" width="330" height="8" as="geometry" />
        </mxCell>
        <mxCell id="7rD_yf8-9EhT5BPNzDUf-30" value="# Page_Load (sender : object, e : EventArgs)" style="text;strokeColor=none;fillColor=none;align=left;verticalAlign=top;spacingLeft=4;spacingRight=4;overflow=hidden;rotatable=0;points=[[0,0.5],[1,0.5]];portConstraint=eastwest;whiteSpace=wrap;html=1;" parent="7rD_yf8-9EhT5BPNzDUf-27" vertex="1">
          <mxGeometry y="60" width="330" height="26" as="geometry" />
        </mxCell>
        <mxCell id="7rD_yf8-9EhT5BPNzDUf-31" value="- LimpioFormulario()" style="text;strokeColor=none;fillColor=none;align=left;verticalAlign=top;spacingLeft=4;spacingRight=4;overflow=hidden;rotatable=0;points=[[0,0.5],[1,0.5]];portConstraint=eastwest;whiteSpace=wrap;html=1;" parent="7rD_yf8-9EhT5BPNzDUf-27" vertex="1">
          <mxGeometry y="86" width="330" height="26" as="geometry" />
        </mxCell>
        <mxCell id="7rD_yf8-9EhT5BPNzDUf-32" value="- ActivoBotones (esAlta : bool)" style="text;strokeColor=none;fillColor=none;align=left;verticalAlign=top;spacingLeft=4;spacingRight=4;overflow=hidden;rotatable=0;points=[[0,0.5],[1,0.5]];portConstraint=eastwest;whiteSpace=wrap;html=1;" parent="7rD_yf8-9EhT5BPNzDUf-27" vertex="1">
          <mxGeometry y="112" width="330" height="26" as="geometry" />
        </mxCell>
        <mxCell id="7rD_yf8-9EhT5BPNzDUf-33" value="# btnBuscar_Click (sender : object, e : EventArgs)" style="text;strokeColor=none;fillColor=none;align=left;verticalAlign=top;spacingLeft=4;spacingRight=4;overflow=hidden;rotatable=0;points=[[0,0.5],[1,0.5]];portConstraint=eastwest;whiteSpace=wrap;html=1;" parent="7rD_yf8-9EhT5BPNzDUf-27" vertex="1">
          <mxGeometry y="138" width="330" height="26" as="geometry" />
        </mxCell>
        <mxCell id="7rD_yf8-9EhT5BPNzDUf-34" value="# btnAgregar_Click (sender : object, e : EventArgs)" style="text;strokeColor=none;fillColor=none;align=left;verticalAlign=top;spacingLeft=4;spacingRight=4;overflow=hidden;rotatable=0;points=[[0,0.5],[1,0.5]];portConstraint=eastwest;whiteSpace=wrap;html=1;" parent="7rD_yf8-9EhT5BPNzDUf-27" vertex="1">
          <mxGeometry y="164" width="330" height="26" as="geometry" />
        </mxCell>
        <mxCell id="7rD_yf8-9EhT5BPNzDUf-35" value="# btnModificar_Click (sender : object, e : EventArgs)" style="text;strokeColor=none;fillColor=none;align=left;verticalAlign=top;spacingLeft=4;spacingRight=4;overflow=hidden;rotatable=0;points=[[0,0.5],[1,0.5]];portConstraint=eastwest;whiteSpace=wrap;html=1;" parent="7rD_yf8-9EhT5BPNzDUf-27" vertex="1">
          <mxGeometry y="190" width="330" height="26" as="geometry" />
        </mxCell>
        <mxCell id="7rD_yf8-9EhT5BPNzDUf-36" value="# btnEliminar_Click (sender : object, e : EventArgs)" style="text;strokeColor=none;fillColor=none;align=left;verticalAlign=top;spacingLeft=4;spacingRight=4;overflow=hidden;rotatable=0;points=[[0,0.5],[1,0.5]];portConstraint=eastwest;whiteSpace=wrap;html=1;" parent="7rD_yf8-9EhT5BPNzDUf-27" vertex="1">
          <mxGeometry y="216" width="330" height="26" as="geometry" />
        </mxCell>
        <mxCell id="7rD_yf8-9EhT5BPNzDUf-37" value="# btnLimpiar_Click (sender : object, e : EventArgs)" style="text;strokeColor=none;fillColor=none;align=left;verticalAlign=top;spacingLeft=4;spacingRight=4;overflow=hidden;rotatable=0;points=[[0,0.5],[1,0.5]];portConstraint=eastwest;whiteSpace=wrap;html=1;" parent="7rD_yf8-9EhT5BPNzDUf-27" vertex="1">
          <mxGeometry y="242" width="330" height="26" as="geometry" />
        </mxCell>
        <mxCell id="7rD_yf8-9EhT5BPNzDUf-38" value="AltaVuelos" style="swimlane;fontStyle=1;align=center;verticalAlign=top;childLayout=stackLayout;horizontal=1;startSize=26;horizontalStack=0;resizeParent=1;resizeParentMax=0;resizeLast=0;collapsible=1;marginBottom=0;whiteSpace=wrap;html=1;rounded=1;" parent="1" vertex="1">
          <mxGeometry x="760" y="-700" width="330" height="164" as="geometry" />
        </mxCell>
        <mxCell id="7rD_yf8-9EhT5BPNzDUf-39" value="&lt;font color=&quot;#ffffff&quot;&gt;-&lt;/font&gt;" style="text;strokeColor=none;fillColor=none;align=left;verticalAlign=top;spacingLeft=4;spacingRight=4;overflow=hidden;rotatable=0;points=[[0,0.5],[1,0.5]];portConstraint=eastwest;whiteSpace=wrap;html=1;" parent="7rD_yf8-9EhT5BPNzDUf-38" vertex="1">
          <mxGeometry y="26" width="330" height="26" as="geometry" />
        </mxCell>
        <mxCell id="7rD_yf8-9EhT5BPNzDUf-40" value="" style="line;strokeWidth=1;fillColor=none;align=left;verticalAlign=middle;spacingTop=-1;spacingLeft=3;spacingRight=3;rotatable=0;labelPosition=right;points=[];portConstraint=eastwest;strokeColor=inherit;" parent="7rD_yf8-9EhT5BPNzDUf-38" vertex="1">
          <mxGeometry y="52" width="330" height="8" as="geometry" />
        </mxCell>
        <mxCell id="7rD_yf8-9EhT5BPNzDUf-41" value="# Page_Load (sender : object, e : EventArgs)" style="text;strokeColor=none;fillColor=none;align=left;verticalAlign=top;spacingLeft=4;spacingRight=4;overflow=hidden;rotatable=0;points=[[0,0.5],[1,0.5]];portConstraint=eastwest;whiteSpace=wrap;html=1;" parent="7rD_yf8-9EhT5BPNzDUf-38" vertex="1">
          <mxGeometry y="60" width="330" height="26" as="geometry" />
        </mxCell>
        <mxCell id="7rD_yf8-9EhT5BPNzDUf-45" value="# btnAgregar_Click (sender : object, e : EventArgs)" style="text;strokeColor=none;fillColor=none;align=left;verticalAlign=top;spacingLeft=4;spacingRight=4;overflow=hidden;rotatable=0;points=[[0,0.5],[1,0.5]];portConstraint=eastwest;whiteSpace=wrap;html=1;" parent="7rD_yf8-9EhT5BPNzDUf-38" vertex="1">
          <mxGeometry y="86" width="330" height="26" as="geometry" />
        </mxCell>
        <mxCell id="7rD_yf8-9EhT5BPNzDUf-48" value="# btnLimpiar_Click (sender : object, e : EventArgs)" style="text;strokeColor=none;fillColor=none;align=left;verticalAlign=top;spacingLeft=4;spacingRight=4;overflow=hidden;rotatable=0;points=[[0,0.5],[1,0.5]];portConstraint=eastwest;whiteSpace=wrap;html=1;" parent="7rD_yf8-9EhT5BPNzDUf-38" vertex="1">
          <mxGeometry y="112" width="330" height="26" as="geometry" />
        </mxCell>
        <mxCell id="7rD_yf8-9EhT5BPNzDUf-49" value="- CargarDropDownList()" style="text;strokeColor=none;fillColor=none;align=left;verticalAlign=top;spacingLeft=4;spacingRight=4;overflow=hidden;rotatable=0;points=[[0,0.5],[1,0.5]];portConstraint=eastwest;whiteSpace=wrap;html=1;" parent="7rD_yf8-9EhT5BPNzDUf-38" vertex="1">
          <mxGeometry y="138" width="330" height="26" as="geometry" />
        </mxCell>
        <mxCell id="7rD_yf8-9EhT5BPNzDUf-50" value="BienvenidaEmpleado" style="swimlane;fontStyle=1;align=center;verticalAlign=top;childLayout=stackLayout;horizontal=1;startSize=26;horizontalStack=0;resizeParent=1;resizeParentMax=0;resizeLast=0;collapsible=1;marginBottom=0;whiteSpace=wrap;html=1;rounded=1;" parent="1" vertex="1">
          <mxGeometry x="760" y="-515.5" width="330" height="86" as="geometry" />
        </mxCell>
        <mxCell id="7rD_yf8-9EhT5BPNzDUf-51" value="&lt;font color=&quot;#ffffff&quot;&gt;-&lt;/font&gt;" style="text;strokeColor=none;fillColor=none;align=left;verticalAlign=top;spacingLeft=4;spacingRight=4;overflow=hidden;rotatable=0;points=[[0,0.5],[1,0.5]];portConstraint=eastwest;whiteSpace=wrap;html=1;" parent="7rD_yf8-9EhT5BPNzDUf-50" vertex="1">
          <mxGeometry y="26" width="330" height="26" as="geometry" />
        </mxCell>
        <mxCell id="7rD_yf8-9EhT5BPNzDUf-52" value="" style="line;strokeWidth=1;fillColor=none;align=left;verticalAlign=middle;spacingTop=-1;spacingLeft=3;spacingRight=3;rotatable=0;labelPosition=right;points=[];portConstraint=eastwest;strokeColor=inherit;" parent="7rD_yf8-9EhT5BPNzDUf-50" vertex="1">
          <mxGeometry y="52" width="330" height="8" as="geometry" />
        </mxCell>
        <mxCell id="7rD_yf8-9EhT5BPNzDUf-53" value="# Page_Load (sender : object, e : EventArgs)" style="text;strokeColor=none;fillColor=none;align=left;verticalAlign=top;spacingLeft=4;spacingRight=4;overflow=hidden;rotatable=0;points=[[0,0.5],[1,0.5]];portConstraint=eastwest;whiteSpace=wrap;html=1;" parent="7rD_yf8-9EhT5BPNzDUf-50" vertex="1">
          <mxGeometry y="60" width="330" height="26" as="geometry" />
        </mxCell>
        <mxCell id="spG03iiC7VgnNip-iij5-1" value="Empleado" style="swimlane;fontStyle=1;align=center;verticalAlign=top;childLayout=stackLayout;horizontal=1;startSize=26;horizontalStack=0;resizeParent=1;resizeParentMax=0;resizeLast=0;collapsible=1;marginBottom=0;whiteSpace=wrap;html=1;rounded=1;" vertex="1" parent="1">
          <mxGeometry x="400" y="-770" width="260" height="86" as="geometry" />
        </mxCell>
        <mxCell id="spG03iiC7VgnNip-iij5-2" value="&lt;font color=&quot;#ffffff&quot;&gt;-&lt;/font&gt;" style="text;strokeColor=none;fillColor=none;align=left;verticalAlign=top;spacingLeft=4;spacingRight=4;overflow=hidden;rotatable=0;points=[[0,0.5],[1,0.5]];portConstraint=eastwest;whiteSpace=wrap;html=1;" vertex="1" parent="spG03iiC7VgnNip-iij5-1">
          <mxGeometry y="26" width="260" height="26" as="geometry" />
        </mxCell>
        <mxCell id="spG03iiC7VgnNip-iij5-3" value="" style="line;strokeWidth=1;fillColor=none;align=left;verticalAlign=middle;spacingTop=-1;spacingLeft=3;spacingRight=3;rotatable=0;labelPosition=right;points=[];portConstraint=eastwest;strokeColor=inherit;" vertex="1" parent="spG03iiC7VgnNip-iij5-1">
          <mxGeometry y="52" width="260" height="8" as="geometry" />
        </mxCell>
        <mxCell id="spG03iiC7VgnNip-iij5-4" value="# Page_Load (sender : object, e : EventArgs)" style="text;strokeColor=none;fillColor=none;align=left;verticalAlign=top;spacingLeft=4;spacingRight=4;overflow=hidden;rotatable=0;points=[[0,0.5],[1,0.5]];portConstraint=eastwest;whiteSpace=wrap;html=1;" vertex="1" parent="spG03iiC7VgnNip-iij5-1">
          <mxGeometry y="60" width="260" height="26" as="geometry" />
        </mxCell>
        <mxCell id="spG03iiC7VgnNip-iij5-5" value="Cliente" style="swimlane;fontStyle=1;align=center;verticalAlign=top;childLayout=stackLayout;horizontal=1;startSize=26;horizontalStack=0;resizeParent=1;resizeParentMax=0;resizeLast=0;collapsible=1;marginBottom=0;whiteSpace=wrap;html=1;rounded=1;" vertex="1" parent="1">
          <mxGeometry x="1200" y="-770" width="260" height="86" as="geometry" />
        </mxCell>
        <mxCell id="spG03iiC7VgnNip-iij5-6" value="&lt;font color=&quot;#ffffff&quot;&gt;-&lt;/font&gt;" style="text;strokeColor=none;fillColor=none;align=left;verticalAlign=top;spacingLeft=4;spacingRight=4;overflow=hidden;rotatable=0;points=[[0,0.5],[1,0.5]];portConstraint=eastwest;whiteSpace=wrap;html=1;" vertex="1" parent="spG03iiC7VgnNip-iij5-5">
          <mxGeometry y="26" width="260" height="26" as="geometry" />
        </mxCell>
        <mxCell id="spG03iiC7VgnNip-iij5-7" value="" style="line;strokeWidth=1;fillColor=none;align=left;verticalAlign=middle;spacingTop=-1;spacingLeft=3;spacingRight=3;rotatable=0;labelPosition=right;points=[];portConstraint=eastwest;strokeColor=inherit;" vertex="1" parent="spG03iiC7VgnNip-iij5-5">
          <mxGeometry y="52" width="260" height="8" as="geometry" />
        </mxCell>
        <mxCell id="spG03iiC7VgnNip-iij5-8" value="# Page_Load (sender : object, e : EventArgs)" style="text;strokeColor=none;fillColor=none;align=left;verticalAlign=top;spacingLeft=4;spacingRight=4;overflow=hidden;rotatable=0;points=[[0,0.5],[1,0.5]];portConstraint=eastwest;whiteSpace=wrap;html=1;" vertex="1" parent="spG03iiC7VgnNip-iij5-5">
          <mxGeometry y="60" width="260" height="26" as="geometry" />
        </mxCell>
        <mxCell id="spG03iiC7VgnNip-iij5-9" value="HistoricoCompras" style="swimlane;fontStyle=1;align=center;verticalAlign=top;childLayout=stackLayout;horizontal=1;startSize=26;horizontalStack=0;resizeParent=1;resizeParentMax=0;resizeLast=0;collapsible=1;marginBottom=0;whiteSpace=wrap;html=1;rounded=1;" vertex="1" parent="1">
          <mxGeometry x="1200" y="-653.5" width="390" height="138" as="geometry" />
        </mxCell>
        <mxCell id="spG03iiC7VgnNip-iij5-10" value="&lt;font color=&quot;#ffffff&quot;&gt;-&lt;/font&gt;" style="text;strokeColor=none;fillColor=none;align=left;verticalAlign=top;spacingLeft=4;spacingRight=4;overflow=hidden;rotatable=0;points=[[0,0.5],[1,0.5]];portConstraint=eastwest;whiteSpace=wrap;html=1;" vertex="1" parent="spG03iiC7VgnNip-iij5-9">
          <mxGeometry y="26" width="390" height="26" as="geometry" />
        </mxCell>
        <mxCell id="spG03iiC7VgnNip-iij5-11" value="" style="line;strokeWidth=1;fillColor=none;align=left;verticalAlign=middle;spacingTop=-1;spacingLeft=3;spacingRight=3;rotatable=0;labelPosition=right;points=[];portConstraint=eastwest;strokeColor=inherit;" vertex="1" parent="spG03iiC7VgnNip-iij5-9">
          <mxGeometry y="52" width="390" height="8" as="geometry" />
        </mxCell>
        <mxCell id="spG03iiC7VgnNip-iij5-12" value="# Page_Load (sender : object, e : EventArgs)" style="text;strokeColor=none;fillColor=none;align=left;verticalAlign=top;spacingLeft=4;spacingRight=4;overflow=hidden;rotatable=0;points=[[0,0.5],[1,0.5]];portConstraint=eastwest;whiteSpace=wrap;html=1;" vertex="1" parent="spG03iiC7VgnNip-iij5-9">
          <mxGeometry y="60" width="390" height="26" as="geometry" />
        </mxCell>
        <mxCell id="spG03iiC7VgnNip-iij5-13" value="# ddlOpciones_SelectedIndexChanged(sender : object, e : EventArgs)" style="text;strokeColor=none;fillColor=none;align=left;verticalAlign=top;spacingLeft=4;spacingRight=4;overflow=hidden;rotatable=0;points=[[0,0.5],[1,0.5]];portConstraint=eastwest;whiteSpace=wrap;html=1;" vertex="1" parent="spG03iiC7VgnNip-iij5-9">
          <mxGeometry y="86" width="390" height="26" as="geometry" />
        </mxCell>
        <mxCell id="spG03iiC7VgnNip-iij5-14" value="# gvPasajes_PageIndexChanging(sender : object, e : EventArgs)" style="text;strokeColor=none;fillColor=none;align=left;verticalAlign=top;spacingLeft=4;spacingRight=4;overflow=hidden;rotatable=0;points=[[0,0.5],[1,0.5]];portConstraint=eastwest;whiteSpace=wrap;html=1;" vertex="1" parent="spG03iiC7VgnNip-iij5-9">
          <mxGeometry y="112" width="390" height="26" as="geometry" />
        </mxCell>
        <mxCell id="spG03iiC7VgnNip-iij5-17" value="LoginCliente" style="swimlane;fontStyle=1;align=center;verticalAlign=top;childLayout=stackLayout;horizontal=1;startSize=26;horizontalStack=0;resizeParent=1;resizeParentMax=0;resizeLast=0;collapsible=1;marginBottom=0;whiteSpace=wrap;html=1;rounded=1;" vertex="1" parent="1">
          <mxGeometry x="1200" y="-440" width="330" height="112" as="geometry" />
        </mxCell>
        <mxCell id="spG03iiC7VgnNip-iij5-18" value="&lt;font color=&quot;#ffffff&quot;&gt;-&lt;/font&gt;" style="text;strokeColor=none;fillColor=none;align=left;verticalAlign=top;spacingLeft=4;spacingRight=4;overflow=hidden;rotatable=0;points=[[0,0.5],[1,0.5]];portConstraint=eastwest;whiteSpace=wrap;html=1;" vertex="1" parent="spG03iiC7VgnNip-iij5-17">
          <mxGeometry y="26" width="330" height="26" as="geometry" />
        </mxCell>
        <mxCell id="spG03iiC7VgnNip-iij5-19" value="" style="line;strokeWidth=1;fillColor=none;align=left;verticalAlign=middle;spacingTop=-1;spacingLeft=3;spacingRight=3;rotatable=0;labelPosition=right;points=[];portConstraint=eastwest;strokeColor=inherit;" vertex="1" parent="spG03iiC7VgnNip-iij5-17">
          <mxGeometry y="52" width="330" height="8" as="geometry" />
        </mxCell>
        <mxCell id="spG03iiC7VgnNip-iij5-20" value="# Page_Load (sender : object, e : EventArgs)" style="text;strokeColor=none;fillColor=none;align=left;verticalAlign=top;spacingLeft=4;spacingRight=4;overflow=hidden;rotatable=0;points=[[0,0.5],[1,0.5]];portConstraint=eastwest;whiteSpace=wrap;html=1;" vertex="1" parent="spG03iiC7VgnNip-iij5-17">
          <mxGeometry y="60" width="330" height="26" as="geometry" />
        </mxCell>
        <mxCell id="spG03iiC7VgnNip-iij5-22" value="# BtnLogueo_Click (sender : object, e : EventArgs)" style="text;strokeColor=none;fillColor=none;align=left;verticalAlign=top;spacingLeft=4;spacingRight=4;overflow=hidden;rotatable=0;points=[[0,0.5],[1,0.5]];portConstraint=eastwest;whiteSpace=wrap;html=1;" vertex="1" parent="spG03iiC7VgnNip-iij5-17">
          <mxGeometry y="86" width="330" height="26" as="geometry" />
        </mxCell>
        <mxCell id="spG03iiC7VgnNip-iij5-24" value="LoginEmpleado" style="swimlane;fontStyle=1;align=center;verticalAlign=top;childLayout=stackLayout;horizontal=1;startSize=26;horizontalStack=0;resizeParent=1;resizeParentMax=0;resizeLast=0;collapsible=1;marginBottom=0;whiteSpace=wrap;html=1;rounded=1;" vertex="1" parent="1">
          <mxGeometry x="1195" y="-290" width="330" height="112" as="geometry" />
        </mxCell>
        <mxCell id="spG03iiC7VgnNip-iij5-25" value="&lt;font color=&quot;#ffffff&quot;&gt;-&lt;/font&gt;" style="text;strokeColor=none;fillColor=none;align=left;verticalAlign=top;spacingLeft=4;spacingRight=4;overflow=hidden;rotatable=0;points=[[0,0.5],[1,0.5]];portConstraint=eastwest;whiteSpace=wrap;html=1;" vertex="1" parent="spG03iiC7VgnNip-iij5-24">
          <mxGeometry y="26" width="330" height="26" as="geometry" />
        </mxCell>
        <mxCell id="spG03iiC7VgnNip-iij5-26" value="" style="line;strokeWidth=1;fillColor=none;align=left;verticalAlign=middle;spacingTop=-1;spacingLeft=3;spacingRight=3;rotatable=0;labelPosition=right;points=[];portConstraint=eastwest;strokeColor=inherit;" vertex="1" parent="spG03iiC7VgnNip-iij5-24">
          <mxGeometry y="52" width="330" height="8" as="geometry" />
        </mxCell>
        <mxCell id="spG03iiC7VgnNip-iij5-27" value="# Page_Load (sender : object, e : EventArgs)" style="text;strokeColor=none;fillColor=none;align=left;verticalAlign=top;spacingLeft=4;spacingRight=4;overflow=hidden;rotatable=0;points=[[0,0.5],[1,0.5]];portConstraint=eastwest;whiteSpace=wrap;html=1;" vertex="1" parent="spG03iiC7VgnNip-iij5-24">
          <mxGeometry y="60" width="330" height="26" as="geometry" />
        </mxCell>
        <mxCell id="spG03iiC7VgnNip-iij5-28" value="# BtnLogueo_Click (sender : object, e : EventArgs)" style="text;strokeColor=none;fillColor=none;align=left;verticalAlign=top;spacingLeft=4;spacingRight=4;overflow=hidden;rotatable=0;points=[[0,0.5],[1,0.5]];portConstraint=eastwest;whiteSpace=wrap;html=1;" vertex="1" parent="spG03iiC7VgnNip-iij5-24">
          <mxGeometry y="86" width="330" height="26" as="geometry" />
        </mxCell>
        <mxCell id="spG03iiC7VgnNip-iij5-29" value="Principal" style="swimlane;fontStyle=1;align=center;verticalAlign=top;childLayout=stackLayout;horizontal=1;startSize=26;horizontalStack=0;resizeParent=1;resizeParentMax=0;resizeLast=0;collapsible=1;marginBottom=0;whiteSpace=wrap;html=1;rounded=1;" vertex="1" parent="1">
          <mxGeometry x="770" y="-1000" width="390" height="268" as="geometry" />
        </mxCell>
        <mxCell id="spG03iiC7VgnNip-iij5-30" value="&lt;font color=&quot;#ffffff&quot;&gt;-&lt;/font&gt;" style="text;strokeColor=none;fillColor=none;align=left;verticalAlign=top;spacingLeft=4;spacingRight=4;overflow=hidden;rotatable=0;points=[[0,0.5],[1,0.5]];portConstraint=eastwest;whiteSpace=wrap;html=1;" vertex="1" parent="spG03iiC7VgnNip-iij5-29">
          <mxGeometry y="26" width="390" height="26" as="geometry" />
        </mxCell>
        <mxCell id="spG03iiC7VgnNip-iij5-31" value="" style="line;strokeWidth=1;fillColor=none;align=left;verticalAlign=middle;spacingTop=-1;spacingLeft=3;spacingRight=3;rotatable=0;labelPosition=right;points=[];portConstraint=eastwest;strokeColor=inherit;" vertex="1" parent="spG03iiC7VgnNip-iij5-29">
          <mxGeometry y="52" width="390" height="8" as="geometry" />
        </mxCell>
        <mxCell id="spG03iiC7VgnNip-iij5-32" value="# Page_Load (sender : object, e : EventArgs)" style="text;strokeColor=none;fillColor=none;align=left;verticalAlign=top;spacingLeft=4;spacingRight=4;overflow=hidden;rotatable=0;points=[[0,0.5],[1,0.5]];portConstraint=eastwest;whiteSpace=wrap;html=1;" vertex="1" parent="spG03iiC7VgnNip-iij5-29">
          <mxGeometry y="60" width="390" height="26" as="geometry" />
        </mxCell>
        <mxCell id="spG03iiC7VgnNip-iij5-35" value="# ddlOpciones_SelectedIndexChanged (sender : object, e : EventArgs)" style="text;strokeColor=none;fillColor=none;align=left;verticalAlign=top;spacingLeft=4;spacingRight=4;overflow=hidden;rotatable=0;points=[[0,0.5],[1,0.5]];portConstraint=eastwest;whiteSpace=wrap;html=1;" vertex="1" parent="spG03iiC7VgnNip-iij5-29">
          <mxGeometry y="86" width="390" height="26" as="geometry" />
        </mxCell>
        <mxCell id="spG03iiC7VgnNip-iij5-33" value="- CargarDropDownList()" style="text;strokeColor=none;fillColor=none;align=left;verticalAlign=top;spacingLeft=4;spacingRight=4;overflow=hidden;rotatable=0;points=[[0,0.5],[1,0.5]];portConstraint=eastwest;whiteSpace=wrap;html=1;" vertex="1" parent="spG03iiC7VgnNip-iij5-29">
          <mxGeometry y="112" width="390" height="26" as="geometry" />
        </mxCell>
        <mxCell id="spG03iiC7VgnNip-iij5-34" value="- CargarGrillaPartidas()" style="text;strokeColor=none;fillColor=none;align=left;verticalAlign=top;spacingLeft=4;spacingRight=4;overflow=hidden;rotatable=0;points=[[0,0.5],[1,0.5]];portConstraint=eastwest;whiteSpace=wrap;html=1;" vertex="1" parent="spG03iiC7VgnNip-iij5-29">
          <mxGeometry y="138" width="390" height="26" as="geometry" />
        </mxCell>
        <mxCell id="spG03iiC7VgnNip-iij5-42" value="- CargarGrillaArribos()" style="text;strokeColor=none;fillColor=none;align=left;verticalAlign=top;spacingLeft=4;spacingRight=4;overflow=hidden;rotatable=0;points=[[0,0.5],[1,0.5]];portConstraint=eastwest;whiteSpace=wrap;html=1;" vertex="1" parent="spG03iiC7VgnNip-iij5-29">
          <mxGeometry y="164" width="390" height="26" as="geometry" />
        </mxCell>
        <mxCell id="spG03iiC7VgnNip-iij5-36" value="# btnAgregar_Click (sender : object, e : EventArgs)" style="text;strokeColor=none;fillColor=none;align=left;verticalAlign=top;spacingLeft=4;spacingRight=4;overflow=hidden;rotatable=0;points=[[0,0.5],[1,0.5]];portConstraint=eastwest;whiteSpace=wrap;html=1;" vertex="1" parent="spG03iiC7VgnNip-iij5-29">
          <mxGeometry y="190" width="390" height="26" as="geometry" />
        </mxCell>
        <mxCell id="spG03iiC7VgnNip-iij5-37" value="# gvPartidas_PageIndexChanging(sender : object, e : EventArgs)" style="text;strokeColor=none;fillColor=none;align=left;verticalAlign=top;spacingLeft=4;spacingRight=4;overflow=hidden;rotatable=0;points=[[0,0.5],[1,0.5]];portConstraint=eastwest;whiteSpace=wrap;html=1;" vertex="1" parent="spG03iiC7VgnNip-iij5-29">
          <mxGeometry y="216" width="390" height="26" as="geometry" />
        </mxCell>
        <mxCell id="spG03iiC7VgnNip-iij5-38" value="# gvArribos_PageIndexChanging(sender : object, e : EventArgs)" style="text;strokeColor=none;fillColor=none;align=left;verticalAlign=top;spacingLeft=4;spacingRight=4;overflow=hidden;rotatable=0;points=[[0,0.5],[1,0.5]];portConstraint=eastwest;whiteSpace=wrap;html=1;" vertex="1" parent="spG03iiC7VgnNip-iij5-29">
          <mxGeometry y="242" width="390" height="26" as="geometry" />
        </mxCell>
        <mxCell id="spG03iiC7VgnNip-iij5-43" value="VentaPasajes" style="swimlane;fontStyle=1;align=center;verticalAlign=top;childLayout=stackLayout;horizontal=1;startSize=26;horizontalStack=0;resizeParent=1;resizeParentMax=0;resizeLast=0;collapsible=1;marginBottom=0;whiteSpace=wrap;html=1;rounded=1;" vertex="1" parent="1">
          <mxGeometry x="90" y="-584" width="330" height="164" as="geometry" />
        </mxCell>
        <mxCell id="spG03iiC7VgnNip-iij5-44" value="&lt;font color=&quot;#ffffff&quot;&gt;-&lt;/font&gt;" style="text;strokeColor=none;fillColor=none;align=left;verticalAlign=top;spacingLeft=4;spacingRight=4;overflow=hidden;rotatable=0;points=[[0,0.5],[1,0.5]];portConstraint=eastwest;whiteSpace=wrap;html=1;" vertex="1" parent="spG03iiC7VgnNip-iij5-43">
          <mxGeometry y="26" width="330" height="26" as="geometry" />
        </mxCell>
        <mxCell id="spG03iiC7VgnNip-iij5-45" value="" style="line;strokeWidth=1;fillColor=none;align=left;verticalAlign=middle;spacingTop=-1;spacingLeft=3;spacingRight=3;rotatable=0;labelPosition=right;points=[];portConstraint=eastwest;strokeColor=inherit;" vertex="1" parent="spG03iiC7VgnNip-iij5-43">
          <mxGeometry y="52" width="330" height="8" as="geometry" />
        </mxCell>
        <mxCell id="spG03iiC7VgnNip-iij5-46" value="# Page_Load (sender : object, e : EventArgs)" style="text;strokeColor=none;fillColor=none;align=left;verticalAlign=top;spacingLeft=4;spacingRight=4;overflow=hidden;rotatable=0;points=[[0,0.5],[1,0.5]];portConstraint=eastwest;whiteSpace=wrap;html=1;" vertex="1" parent="spG03iiC7VgnNip-iij5-43">
          <mxGeometry y="60" width="330" height="26" as="geometry" />
        </mxCell>
        <mxCell id="spG03iiC7VgnNip-iij5-47" value="# btnAgregar_Click (sender : object, e : EventArgs)" style="text;strokeColor=none;fillColor=none;align=left;verticalAlign=top;spacingLeft=4;spacingRight=4;overflow=hidden;rotatable=0;points=[[0,0.5],[1,0.5]];portConstraint=eastwest;whiteSpace=wrap;html=1;" vertex="1" parent="spG03iiC7VgnNip-iij5-43">
          <mxGeometry y="86" width="330" height="26" as="geometry" />
        </mxCell>
        <mxCell id="spG03iiC7VgnNip-iij5-49" value="- CargarDropDownList()" style="text;strokeColor=none;fillColor=none;align=left;verticalAlign=top;spacingLeft=4;spacingRight=4;overflow=hidden;rotatable=0;points=[[0,0.5],[1,0.5]];portConstraint=eastwest;whiteSpace=wrap;html=1;" vertex="1" parent="spG03iiC7VgnNip-iij5-43">
          <mxGeometry y="112" width="330" height="26" as="geometry" />
        </mxCell>
        <mxCell id="spG03iiC7VgnNip-iij5-48" value="# btnLimpiar_Click (sender : object, e : EventArgs)" style="text;strokeColor=none;fillColor=none;align=left;verticalAlign=top;spacingLeft=4;spacingRight=4;overflow=hidden;rotatable=0;points=[[0,0.5],[1,0.5]];portConstraint=eastwest;whiteSpace=wrap;html=1;" vertex="1" parent="spG03iiC7VgnNip-iij5-43">
          <mxGeometry y="138" width="330" height="26" as="geometry" />
        </mxCell>
        <mxCell id="spG03iiC7VgnNip-iij5-50" value="" style="endArrow=none;dashed=1;html=1;rounded=1;startArrow=openThin;startFill=0;exitX=-0.013;exitY=0.115;exitDx=0;exitDy=0;strokeWidth=1.5;entryX=0;entryY=0.25;entryDx=0;entryDy=0;fillColor=#d5e8d4;strokeColor=#82b366;exitPerimeter=0;" edge="1" parent="1" source="spG03iiC7VgnNip-iij5-43" target="spG03iiC7VgnNip-iij5-1">
          <mxGeometry width="50" height="50" relative="1" as="geometry">
            <mxPoint x="190" y="-380" as="sourcePoint" />
            <mxPoint x="269" y="-736" as="targetPoint" />
            <Array as="points">
              <mxPoint x="70" y="-565" />
              <mxPoint x="70" y="-750" />
            </Array>
          </mxGeometry>
        </mxCell>
        <mxCell id="spG03iiC7VgnNip-iij5-51" value="" style="endArrow=none;dashed=1;html=1;rounded=1;startArrow=openThin;startFill=0;strokeWidth=1.5;entryX=0;entryY=0.5;entryDx=0;entryDy=0;fillColor=#d5e8d4;strokeColor=#82b366;" edge="1" parent="1" target="spG03iiC7VgnNip-iij5-2">
          <mxGeometry width="50" height="50" relative="1" as="geometry">
            <mxPoint y="-360" as="sourcePoint" />
            <mxPoint x="390" y="-728" as="targetPoint" />
            <Array as="points">
              <mxPoint x="-20" y="-360" />
              <mxPoint x="-20" y="-400" />
              <mxPoint x="430" y="-400" />
              <mxPoint x="430" y="-600" />
              <mxPoint x="370" y="-600" />
              <mxPoint x="370" y="-731" />
            </Array>
          </mxGeometry>
        </mxCell>
        <mxCell id="spG03iiC7VgnNip-iij5-52" value="" style="endArrow=none;dashed=1;html=1;rounded=1;startArrow=openThin;startFill=0;exitX=-0.003;exitY=0.066;exitDx=0;exitDy=0;strokeWidth=1.5;entryX=1;entryY=0.5;entryDx=0;entryDy=0;fillColor=#d5e8d4;strokeColor=#82b366;exitPerimeter=0;" edge="1" parent="1" source="7rD_yf8-9EhT5BPNzDUf-14" target="spG03iiC7VgnNip-iij5-4">
          <mxGeometry width="50" height="50" relative="1" as="geometry">
            <mxPoint x="517" y="-405" as="sourcePoint" />
            <mxPoint x="827" y="-608" as="targetPoint" />
            <Array as="points">
              <mxPoint x="360" y="-360" />
              <mxPoint x="360" y="-390" />
              <mxPoint x="440" y="-390" />
              <mxPoint x="440" y="-670" />
              <mxPoint x="680" y="-670" />
              <mxPoint x="680" y="-697" />
            </Array>
          </mxGeometry>
        </mxCell>
        <mxCell id="spG03iiC7VgnNip-iij5-53" value="" style="endArrow=none;dashed=1;html=1;rounded=1;startArrow=openThin;startFill=0;exitX=1;exitY=0.5;exitDx=0;exitDy=0;strokeWidth=1.5;fillColor=#d5e8d4;strokeColor=#82b366;entryX=1;entryY=0.923;entryDx=0;entryDy=0;entryPerimeter=0;" edge="1" parent="1" source="7rD_yf8-9EhT5BPNzDUf-15" target="spG03iiC7VgnNip-iij5-2">
          <mxGeometry width="50" height="50" relative="1" as="geometry">
            <mxPoint x="580" y="-420" as="sourcePoint" />
            <mxPoint x="780" y="-710" as="targetPoint" />
            <Array as="points">
              <mxPoint x="720" y="-340" />
              <mxPoint x="720" y="-400" />
              <mxPoint x="700" y="-400" />
              <mxPoint x="700" y="-720" />
            </Array>
          </mxGeometry>
        </mxCell>
        <mxCell id="spG03iiC7VgnNip-iij5-55" value="" style="endArrow=none;dashed=1;html=1;rounded=1;startArrow=openThin;startFill=0;exitX=0;exitY=0.059;exitDx=0;exitDy=0;strokeWidth=1.5;entryX=1;entryY=0.5;entryDx=0;entryDy=0;fillColor=#d5e8d4;strokeColor=#82b366;exitPerimeter=0;" edge="1" parent="1" source="7rD_yf8-9EhT5BPNzDUf-27" target="spG03iiC7VgnNip-iij5-2">
          <mxGeometry width="50" height="50" relative="1" as="geometry">
            <mxPoint x="730" y="-820" as="sourcePoint" />
            <mxPoint x="1040" y="-1023" as="targetPoint" />
            <Array as="points">
              <mxPoint x="750" y="-364" />
              <mxPoint x="750" y="-410" />
              <mxPoint x="720" y="-410" />
              <mxPoint x="720" y="-730" />
            </Array>
          </mxGeometry>
        </mxCell>
        <mxCell id="spG03iiC7VgnNip-iij5-56" value="" style="endArrow=none;dashed=1;html=1;rounded=1;startArrow=openThin;startFill=0;exitX=0;exitY=0.5;exitDx=0;exitDy=0;strokeWidth=1.5;fillColor=#d5e8d4;strokeColor=#82b366;" edge="1" parent="1" source="7rD_yf8-9EhT5BPNzDUf-39">
          <mxGeometry width="50" height="50" relative="1" as="geometry">
            <mxPoint x="710" y="-830" as="sourcePoint" />
            <mxPoint x="660" y="-761" as="targetPoint" />
            <Array as="points">
              <mxPoint x="740" y="-660" />
              <mxPoint x="740" y="-761" />
            </Array>
          </mxGeometry>
        </mxCell>
        <mxCell id="spG03iiC7VgnNip-iij5-57" value="" style="endArrow=none;dashed=1;html=1;rounded=1;startArrow=openThin;startFill=0;exitX=0;exitY=0.5;exitDx=0;exitDy=0;strokeWidth=1.5;entryX=0;entryY=0.5;entryDx=0;entryDy=0;fillColor=#d5e8d4;strokeColor=#82b366;" edge="1" parent="1" source="spG03iiC7VgnNip-iij5-10" target="spG03iiC7VgnNip-iij5-6">
          <mxGeometry width="50" height="50" relative="1" as="geometry">
            <mxPoint x="1130" y="-670" as="sourcePoint" />
            <mxPoint x="1440" y="-873" as="targetPoint" />
            <Array as="points">
              <mxPoint x="1170" y="-615" />
              <mxPoint x="1170" y="-731" />
            </Array>
          </mxGeometry>
        </mxCell>
        <mxCell id="spG03iiC7VgnNip-iij5-58" value="" style="endArrow=none;dashed=1;html=1;rounded=1;startArrow=openThin;startFill=0;exitX=0.5;exitY=0;exitDx=0;exitDy=0;strokeWidth=1.5;entryX=0;entryY=0.5;entryDx=0;entryDy=0;fillColor=#d5e8d4;strokeColor=#000000;" edge="1" parent="1" source="kFq2H20rjHX_EUCBnDA8-83" target="7rD_yf8-9EhT5BPNzDUf-2">
          <mxGeometry width="50" height="50" relative="1" as="geometry">
            <mxPoint x="-640" y="-25.5" as="sourcePoint" />
            <mxPoint x="-270" y="-415.5" as="targetPoint" />
            <Array as="points">
              <mxPoint x="270" y="-10" />
              <mxPoint x="-20" y="-10" />
              <mxPoint x="-20" y="-341" />
            </Array>
          </mxGeometry>
        </mxCell>
        <mxCell id="spG03iiC7VgnNip-iij5-59" value="" style="endArrow=none;dashed=1;html=1;rounded=1;startArrow=openThin;startFill=0;exitX=0.25;exitY=0;exitDx=0;exitDy=0;strokeWidth=1.5;entryX=1;entryY=0.5;entryDx=0;entryDy=0;fillColor=#d5e8d4;strokeColor=#000000;" edge="1" parent="1" source="kFq2H20rjHX_EUCBnDA8-91" target="7rD_yf8-9EhT5BPNzDUf-2">
          <mxGeometry width="50" height="50" relative="1" as="geometry">
            <mxPoint x="502" y="216" as="sourcePoint" />
            <mxPoint x="290" y="-490" as="targetPoint" />
            <Array as="points">
              <mxPoint x="465" y="-40" />
              <mxPoint x="350" y="-40" />
              <mxPoint x="350" y="-341" />
            </Array>
          </mxGeometry>
        </mxCell>
        <mxCell id="spG03iiC7VgnNip-iij5-60" value="" style="endArrow=none;dashed=1;html=1;rounded=1;startArrow=openThin;startFill=0;exitX=0.5;exitY=0;exitDx=0;exitDy=0;strokeWidth=1.5;fillColor=#d5e8d4;strokeColor=#000000;entryX=0;entryY=0.5;entryDx=0;entryDy=0;" edge="1" parent="1" source="kFq2H20rjHX_EUCBnDA8-91" target="7rD_yf8-9EhT5BPNzDUf-15">
          <mxGeometry width="50" height="50" relative="1" as="geometry">
            <mxPoint x="360" y="66" as="sourcePoint" />
            <mxPoint x="320" y="-600" as="targetPoint" />
            <Array as="points">
              <mxPoint x="520" y="-90" />
              <mxPoint x="360" y="-90" />
              <mxPoint x="360" y="-339" />
            </Array>
          </mxGeometry>
        </mxCell>
        <mxCell id="spG03iiC7VgnNip-iij5-61" value="" style="endArrow=none;dashed=1;html=1;rounded=1;startArrow=openThin;startFill=0;exitX=0;exitY=0.25;exitDx=0;exitDy=0;strokeWidth=1.5;entryX=1.002;entryY=-0.056;entryDx=0;entryDy=0;fillColor=#d5e8d4;strokeColor=#82b366;entryPerimeter=0;" edge="1" parent="1" source="7rD_yf8-9EhT5BPNzDUf-50" target="spG03iiC7VgnNip-iij5-2">
          <mxGeometry width="50" height="50" relative="1" as="geometry">
            <mxPoint x="759" y="-650" as="sourcePoint" />
            <mxPoint x="660" y="-750" as="targetPoint" />
            <Array as="points">
              <mxPoint x="730" y="-494" />
              <mxPoint x="730" y="-745" />
            </Array>
          </mxGeometry>
        </mxCell>
        <mxCell id="spG03iiC7VgnNip-iij5-62" value="" style="endArrow=none;dashed=1;html=1;rounded=1;startArrow=openThin;startFill=0;exitX=0.5;exitY=0;exitDx=0;exitDy=0;strokeWidth=1.5;entryX=1;entryY=0.5;entryDx=0;entryDy=0;fillColor=#d5e8d4;strokeColor=#000000;" edge="1" parent="1" source="kFq2H20rjHX_EUCBnDA8-99" target="7rD_yf8-9EhT5BPNzDUf-28">
          <mxGeometry width="50" height="50" relative="1" as="geometry">
            <mxPoint x="1230" y="365" as="sourcePoint" />
            <mxPoint x="1095" y="-341" as="targetPoint" />
            <Array as="points">
              <mxPoint x="1075" y="-70" />
              <mxPoint x="1115" y="-70" />
              <mxPoint x="1115" y="-341" />
            </Array>
          </mxGeometry>
        </mxCell>
        <mxCell id="spG03iiC7VgnNip-iij5-64" value="" style="endArrow=none;dashed=1;html=1;rounded=1;startArrow=openThin;startFill=0;strokeWidth=1.5;fillColor=#d5e8d4;strokeColor=#FF0000;entryX=1;entryY=0.5;entryDx=0;entryDy=0;exitX=0.75;exitY=0;exitDx=0;exitDy=0;" edge="1" parent="1" source="kFq2H20rjHX_EUCBnDA8-83" target="7rD_yf8-9EhT5BPNzDUf-39">
          <mxGeometry width="50" height="50" relative="1" as="geometry">
            <mxPoint x="740" y="220" as="sourcePoint" />
            <mxPoint x="1150" y="-684" as="targetPoint" />
            <Array as="points">
              <mxPoint x="330" y="-10" />
              <mxPoint x="730" y="-10" />
              <mxPoint x="730" y="-400" />
              <mxPoint x="1120" y="-400" />
              <mxPoint x="1120" y="-660" />
            </Array>
          </mxGeometry>
        </mxCell>
        <mxCell id="spG03iiC7VgnNip-iij5-65" value="" style="endArrow=none;dashed=1;html=1;rounded=1;startArrow=openThin;startFill=0;strokeWidth=1.5;fillColor=#d5e8d4;strokeColor=#FF0000;entryX=1.006;entryY=0.06;entryDx=0;entryDy=0;exitX=0.5;exitY=0;exitDx=0;exitDy=0;entryPerimeter=0;" edge="1" parent="1" source="kFq2H20rjHX_EUCBnDA8-126" target="7rD_yf8-9EhT5BPNzDUf-39">
          <mxGeometry width="50" height="50" relative="1" as="geometry">
            <mxPoint x="930" y="90" as="sourcePoint" />
            <mxPoint x="1746" y="-936" as="targetPoint" />
            <Array as="points">
              <mxPoint x="785" y="-20" />
              <mxPoint x="1130" y="-20" />
              <mxPoint x="1130" y="-672" />
            </Array>
          </mxGeometry>
        </mxCell>
        <mxCell id="spG03iiC7VgnNip-iij5-66" value="" style="endArrow=none;dashed=1;html=1;rounded=1;startArrow=openThin;startFill=0;exitX=0.5;exitY=0;exitDx=0;exitDy=0;strokeWidth=1.5;entryX=1;entryY=0.5;entryDx=0;entryDy=0;fillColor=#d5e8d4;strokeColor=#000000;" edge="1" parent="1" source="kFq2H20rjHX_EUCBnDA8-117" target="spG03iiC7VgnNip-iij5-10">
          <mxGeometry width="50" height="50" relative="1" as="geometry">
            <mxPoint x="1580" y="86" as="sourcePoint" />
            <mxPoint x="1595" y="-620" as="targetPoint" />
            <Array as="points">
              <mxPoint x="1360" y="-20" />
              <mxPoint x="1570" y="-20" />
              <mxPoint x="1570" y="-450" />
              <mxPoint x="1620" y="-450" />
              <mxPoint x="1620" y="-614" />
            </Array>
          </mxGeometry>
        </mxCell>
        <mxCell id="spG03iiC7VgnNip-iij5-67" value="" style="endArrow=none;dashed=1;html=1;rounded=1;startArrow=openThin;startFill=0;exitX=0.75;exitY=0;exitDx=0;exitDy=0;strokeWidth=1.5;fillColor=#d5e8d4;strokeColor=#000000;entryX=0;entryY=0.5;entryDx=0;entryDy=0;" edge="1" parent="1" source="kFq2H20rjHX_EUCBnDA8-99" target="spG03iiC7VgnNip-iij5-18">
          <mxGeometry width="50" height="50" relative="1" as="geometry">
            <mxPoint x="1240" y="230" as="sourcePoint" />
            <mxPoint x="1240" y="-30" as="targetPoint" />
            <Array as="points">
              <mxPoint x="1140" />
              <mxPoint x="1160" />
              <mxPoint x="1160" y="-401" />
            </Array>
          </mxGeometry>
        </mxCell>
        <mxCell id="spG03iiC7VgnNip-iij5-69" value="" style="endArrow=none;dashed=1;html=1;rounded=1;startArrow=openThin;startFill=0;exitX=0.5;exitY=0;exitDx=0;exitDy=0;strokeWidth=1.5;fillColor=#1ba1e2;strokeColor=#006EAF;entryX=1;entryY=0.5;entryDx=0;entryDy=0;" edge="1" parent="1" source="kFq2H20rjHX_EUCBnDA8-108" target="spG03iiC7VgnNip-iij5-25">
          <mxGeometry width="50" height="50" relative="1" as="geometry">
            <mxPoint x="1910" y="-90" as="sourcePoint" />
            <mxPoint x="1910" y="-350" as="targetPoint" />
            <Array as="points">
              <mxPoint x="1655" y="-250" />
            </Array>
          </mxGeometry>
        </mxCell>
        <mxCell id="spG03iiC7VgnNip-iij5-70" value="" style="endArrow=none;dashed=1;html=1;rounded=1;startArrow=openThin;startFill=0;strokeWidth=1.5;fillColor=#d5e8d4;strokeColor=#FF00FF;entryX=0;entryY=0.5;entryDx=0;entryDy=0;exitX=0.25;exitY=0;exitDx=0;exitDy=0;" edge="1" parent="1" source="kFq2H20rjHX_EUCBnDA8-83" target="spG03iiC7VgnNip-iij5-30">
          <mxGeometry width="50" height="50" relative="1" as="geometry">
            <mxPoint x="-70" y="100" as="sourcePoint" />
            <mxPoint x="500" y="-1250" as="targetPoint" />
            <Array as="points">
              <mxPoint x="210" y="40" />
              <mxPoint x="-40" y="40" />
              <mxPoint x="-40" y="-961" />
            </Array>
          </mxGeometry>
        </mxCell>
        <mxCell id="spG03iiC7VgnNip-iij5-72" value="" style="endArrow=none;dashed=1;html=1;rounded=1;startArrow=openThin;startFill=0;strokeWidth=1.5;fillColor=#d5e8d4;strokeColor=#FF00FF;entryX=1;entryY=0.5;entryDx=0;entryDy=0;exitX=0.75;exitY=0;exitDx=0;exitDy=0;" edge="1" parent="1" source="kFq2H20rjHX_EUCBnDA8-126" target="spG03iiC7VgnNip-iij5-30">
          <mxGeometry width="50" height="50" relative="1" as="geometry">
            <mxPoint x="1730" y="210" as="sourcePoint" />
            <mxPoint x="2030" y="-520" as="targetPoint" />
            <Array as="points">
              <mxPoint x="858" y="40" />
              <mxPoint x="1720" y="40" />
              <mxPoint x="1720" y="-961" />
            </Array>
          </mxGeometry>
        </mxCell>
        <mxCell id="spG03iiC7VgnNip-iij5-74" value="" style="endArrow=none;dashed=1;html=1;rounded=1;startArrow=openThin;startFill=0;exitX=0.25;exitY=0;exitDx=0;exitDy=0;strokeWidth=1.5;fillColor=#d5e8d4;strokeColor=#0000FF;entryX=0;entryY=0.5;entryDx=0;entryDy=0;" edge="1" parent="1" source="kFq2H20rjHX_EUCBnDA8-117" target="spG03iiC7VgnNip-iij5-47">
          <mxGeometry width="50" height="50" relative="1" as="geometry">
            <mxPoint x="-320" y="-260" as="sourcePoint" />
            <mxPoint x="-320" y="-520" as="targetPoint" />
            <Array as="points">
              <mxPoint x="1290" y="160" />
              <mxPoint x="-80" y="160" />
              <mxPoint x="-80" y="-485" />
            </Array>
          </mxGeometry>
        </mxCell>
        <mxCell id="spG03iiC7VgnNip-iij5-76" value="" style="endArrow=none;dashed=1;html=1;rounded=1;startArrow=openThin;startFill=0;exitX=0.25;exitY=0;exitDx=0;exitDy=0;strokeWidth=1.5;fillColor=#d5e8d4;strokeColor=#0000FF;entryX=0;entryY=0.5;entryDx=0;entryDy=0;" edge="1" parent="1" source="kFq2H20rjHX_EUCBnDA8-99" target="spG03iiC7VgnNip-iij5-46">
          <mxGeometry width="50" height="50" relative="1" as="geometry">
            <mxPoint x="1170" y="349" as="sourcePoint" />
            <mxPoint x="-33" y="-536" as="targetPoint" />
            <Array as="points">
              <mxPoint x="1010" y="200" />
              <mxPoint x="-130" y="200" />
              <mxPoint x="-130" y="-511" />
            </Array>
          </mxGeometry>
        </mxCell>
        <mxCell id="spG03iiC7VgnNip-iij5-77" value="" style="endArrow=none;dashed=1;html=1;rounded=1;startArrow=openThin;startFill=0;exitX=0.25;exitY=0;exitDx=0;exitDy=0;strokeWidth=1.5;fillColor=#d5e8d4;strokeColor=#0000FF;entryX=0;entryY=0.5;entryDx=0;entryDy=0;" edge="1" parent="1" source="kFq2H20rjHX_EUCBnDA8-126" target="spG03iiC7VgnNip-iij5-44">
          <mxGeometry width="50" height="50" relative="1" as="geometry">
            <mxPoint x="-272" y="-360" as="sourcePoint" />
            <mxPoint x="-450" y="-790" as="targetPoint" />
            <Array as="points">
              <mxPoint x="713" y="240" />
              <mxPoint x="-160" y="240" />
              <mxPoint x="-160" y="-545" />
            </Array>
          </mxGeometry>
        </mxCell>
        <mxCell id="spG03iiC7VgnNip-iij5-88" value="" style="endArrow=classicThin;html=1;rounded=0;exitX=0;exitY=0;exitDx=1910;exitDy=325;exitPerimeter=0;dashed=1;strokeWidth=3;endFill=1;entryX=-0.008;entryY=0.766;entryDx=0;entryDy=0;entryPerimeter=0;" edge="1" parent="1" source="kFq2H20rjHX_EUCBnDA8-81" target="kFq2H20rjHX_EUCBnDA8-79">
          <mxGeometry width="50" height="50" relative="1" as="geometry">
            <mxPoint x="1910" y="1190" as="sourcePoint" />
            <mxPoint x="2010" y="1085" as="targetPoint" />
          </mxGeometry>
        </mxCell>
        <mxCell id="spG03iiC7VgnNip-iij5-89" value="" style="endArrow=classicThin;html=1;rounded=0;exitX=0;exitY=0;exitDx=1910;exitDy=325;exitPerimeter=0;dashed=1;strokeWidth=3;endFill=1;entryX=-0.008;entryY=0.308;entryDx=0;entryDy=0;entryPerimeter=0;" edge="1" parent="1" target="kFq2H20rjHX_EUCBnDA8-79">
          <mxGeometry width="50" height="50" relative="1" as="geometry">
            <mxPoint x="1910" y="508.8" as="sourcePoint" />
            <mxPoint x="2010" y="508.8" as="targetPoint" />
          </mxGeometry>
        </mxCell>
        <mxCell id="spG03iiC7VgnNip-iij5-90" value="" style="endArrow=classicThin;html=1;rounded=0;exitX=0;exitY=0;exitDx=2130;exitDy=610;exitPerimeter=0;dashed=1;strokeWidth=3;endFill=1;entryX=0.547;entryY=0.023;entryDx=0;entryDy=0;entryPerimeter=0;" edge="1" parent="1" source="spG03iiC7VgnNip-iij5-86" target="kFq2H20rjHX_EUCBnDA8-79">
          <mxGeometry width="50" height="50" relative="1" as="geometry">
            <mxPoint x="2068" y="-350" as="sourcePoint" />
            <mxPoint x="2168" y="-350" as="targetPoint" />
            <Array as="points">
              <mxPoint x="2271" y="-460" />
            </Array>
          </mxGeometry>
        </mxCell>
      </root>
    </mxGraphModel>
  </diagram>
</mxfile>
